<svg width="281" height="148" viewBox="0 0 281 148" fill="none" xmlns="http://www.w3.org/2000/svg">
<rect width="281" height="147.869" rx="16" fill="#4D54E4"/>
<mask id="mask0_108_609" style="mask-type:alpha" maskUnits="userSpaceOnUse" x="0" y="0" width="281" height="148">
<rect width="281" height="147.869" rx="16" fill="#0177FB"/>
</mask>
<g mask="url(#mask0_108_609)">
<path d="M226.859 -13.4192C225.197 4.06027 217.245 20.3417 204.481 32.3987C191.717 44.4557 175.009 51.468 157.463 52.1319C139.918 52.7959 122.728 47.0665 109.089 36.0087C95.4501 24.9509 86.2904 9.31696 83.3123 -7.9869L112.517 -13.0131C114.277 -2.78593 119.691 6.45423 127.752 12.9898C135.813 19.5253 145.973 22.9116 156.343 22.5192C166.713 22.1267 176.588 17.9823 184.132 10.8562C191.676 3.73009 196.375 -5.89281 197.358 -16.2237L226.859 -13.4192Z" fill="url(#paint0_linear_108_609)"/>
<path d="M216.4 51.3039C241.748 40.1032 273.631 45.6545 286.404 49.8302L285.176 79.5515C278.134 77.6684 261.251 73.902 250.051 73.902C236.05 73.902 215.663 82.2534 201.662 93.3068C187.661 104.36 171.204 122.291 163.098 130.151C156.613 136.439 145.658 145.38 140.991 149.065H62.3899C120.358 145.38 168.011 82.7447 173.906 78.0777C179.801 73.4108 184.713 65.3048 216.4 51.3039Z" fill="url(#paint1_linear_108_609)"/>
</g>
<path d="M218.949 111.364L217.017 123H214.892L211.057 115.676H210.966L209.744 123H207.284L209.216 111.364H211.375L215.193 118.682H215.29L216.5 111.364H218.949ZM221.055 123H218.419L224.368 111.364H227.538L229.618 123H226.982L225.567 114.023H225.476L221.055 123ZM221.658 118.426H227.885L227.555 120.347H221.328L221.658 118.426ZM231.018 123L232.95 111.364H237.541C238.42 111.364 239.142 111.532 239.706 111.869C240.274 112.203 240.672 112.667 240.899 113.261C241.13 113.852 241.183 114.534 241.058 115.307C240.929 116.083 240.649 116.767 240.217 117.358C239.789 117.945 239.232 118.403 238.547 118.733C237.861 119.062 237.07 119.227 236.172 119.227H233.246L233.57 117.256H236.098C236.575 117.256 236.982 117.174 237.32 117.011C237.661 116.845 237.931 116.616 238.132 116.324C238.333 116.028 238.464 115.689 238.524 115.307C238.589 114.917 238.568 114.578 238.462 114.29C238.356 114.002 238.161 113.778 237.876 113.619C237.596 113.456 237.219 113.375 236.746 113.375H235.087L233.479 123H231.018ZM242.04 123H239.403L245.352 111.364H248.523L250.602 123H247.966L246.551 114.023H246.46L242.04 123ZM242.642 118.426H248.869L248.54 120.347H242.312L242.642 118.426ZM259.413 114.744C259.432 114.271 259.294 113.905 258.999 113.648C258.707 113.39 258.266 113.261 257.675 113.261C257.273 113.261 256.925 113.318 256.629 113.432C256.334 113.542 256.097 113.695 255.919 113.892C255.745 114.085 255.637 114.309 255.595 114.562C255.554 114.771 255.567 114.953 255.635 115.108C255.707 115.263 255.819 115.398 255.97 115.511C256.125 115.621 256.309 115.718 256.521 115.801C256.733 115.881 256.959 115.949 257.197 116.006L258.197 116.256C258.686 116.369 259.125 116.521 259.516 116.71C259.91 116.9 260.239 117.133 260.504 117.409C260.773 117.686 260.963 118.011 261.072 118.386C261.182 118.761 261.197 119.191 261.118 119.676C260.997 120.388 260.714 121.006 260.271 121.528C259.828 122.047 259.247 122.451 258.527 122.739C257.807 123.023 256.974 123.165 256.027 123.165C255.088 123.165 254.294 123.021 253.646 122.733C252.999 122.445 252.527 122.019 252.232 121.455C251.94 120.886 251.853 120.184 251.97 119.347H254.351C254.309 119.737 254.366 120.062 254.521 120.324C254.68 120.581 254.917 120.777 255.232 120.909C255.546 121.038 255.915 121.102 256.339 121.102C256.76 121.102 257.133 121.042 257.459 120.92C257.788 120.799 258.055 120.631 258.26 120.415C258.464 120.199 258.589 119.951 258.635 119.67C258.68 119.409 258.641 119.189 258.516 119.011C258.391 118.833 258.19 118.682 257.913 118.557C257.641 118.428 257.302 118.314 256.896 118.216L255.68 117.898C254.741 117.659 254.031 117.286 253.55 116.778C253.069 116.271 252.896 115.587 253.033 114.727C253.154 114.023 253.447 113.407 253.913 112.881C254.383 112.35 254.974 111.939 255.686 111.648C256.402 111.352 257.184 111.205 258.033 111.205C258.896 111.205 259.625 111.354 260.22 111.653C260.815 111.949 261.249 112.362 261.521 112.892C261.794 113.422 261.877 114.04 261.771 114.744H259.413Z" fill="white"/>
<path fill-rule="evenodd" clip-rule="evenodd" d="M24.379 56.2133C23.3305 55.1649 23.3296 53.4652 24.379 52.4159L28.2383 48.5566C29.2715 47.5234 29.2706 45.8488 28.2374 44.8156L24.3781 40.9563C23.3296 39.9079 23.3296 38.2074 24.3781 37.1589L24.379 37.158C25.4275 36.1095 27.1279 36.1095 28.1764 37.158L35.834 44.8156C36.8664 45.8479 36.8663 47.5234 35.8331 48.5566L28.1764 56.2133C27.1271 57.2626 25.4274 57.2618 24.379 56.2133ZM22.7995 50.3198C22.6076 50.1279 22.5009 49.8669 22.5009 49.5961C22.5 49.3243 22.6076 49.0642 22.8005 48.8714C23.2543 48.4175 23.8373 47.8346 24.2866 47.3852C24.6732 46.9987 24.6731 46.3726 24.2866 45.9861C23.8372 45.5367 23.2542 44.9538 22.8004 44.5C22.6085 44.308 22.5009 44.0479 22.5 43.7761C22.5 43.5053 22.6085 43.2443 22.8005 43.0524C22.9924 42.8604 23.2525 42.7528 23.5242 42.7519C23.796 42.7528 24.0561 42.8604 24.248 43.0524C25.0624 43.8667 26.3772 45.1816 27.1827 45.987C27.5683 46.3727 27.5683 46.9987 27.1818 47.3852L24.2481 50.319C24.0552 50.5118 23.7951 50.6194 23.5242 50.6194C23.2534 50.6194 22.9915 50.5118 22.7995 50.3198Z" fill="white"/>
<path fill-rule="evenodd" clip-rule="evenodd" d="M31.9988 40.9709L35.841 44.8131C36.8743 45.8464 36.8743 47.5218 35.841 48.555L34.5477 49.8483L30.7046 46.0052C29.6722 44.9728 29.6722 43.2975 30.7054 42.2642L31.9988 40.9709Z" fill="white"/>
<path fill-rule="evenodd" clip-rule="evenodd" d="M42.9804 33.7867C44.0289 34.8351 44.0297 36.5348 42.9804 37.5841L39.1211 41.4434C38.0879 42.4766 38.0888 44.1512 39.122 45.1844L42.9813 49.0437C44.0298 50.0921 44.0298 51.7926 42.9813 52.8411L42.9804 52.842C41.9319 53.8905 40.2314 53.8905 39.183 52.842L31.5253 45.1844C30.493 44.1521 30.493 42.4766 31.5263 41.4434L39.183 33.7867C40.2323 32.7373 41.932 32.7382 42.9804 33.7867ZM45.3051 39.681C45.497 39.873 45.6047 40.1331 45.6047 40.4039C45.6056 40.6757 45.4971 40.9367 45.3051 41.1286C44.8513 41.5824 44.2684 42.1654 43.819 42.6148C43.4325 43.0013 43.4324 43.6274 43.8181 44.013C44.2683 44.4633 44.8504 45.0454 45.3051 45.5001C45.4971 45.692 45.6047 45.9521 45.6056 46.2239C45.6047 46.4956 45.4971 46.7557 45.3051 46.9476C45.1132 47.1396 44.8531 47.2472 44.5814 47.2481C44.3096 47.2472 44.0495 47.1396 43.8576 46.9477C43.0423 46.1324 41.7274 44.8175 40.9229 44.013C40.5364 43.6265 40.5364 43.0004 40.923 42.6139L43.8567 39.6802C44.0486 39.4882 44.3105 39.3806 44.5813 39.3806C44.8522 39.3806 45.1123 39.4882 45.3042 39.6802L45.3051 39.681Z" fill="white"/>
<path d="M61.5376 42.6172C61.4912 42.183 61.2957 41.8449 60.951 41.603C60.6096 41.361 60.1655 41.2401 59.6186 41.2401C59.2341 41.2401 58.9044 41.2981 58.6293 41.4141C58.3542 41.5301 58.1437 41.6875 57.9979 41.8864C57.852 42.0852 57.7775 42.3123 57.7741 42.5675C57.7741 42.7796 57.8222 42.9635 57.9183 43.1193C58.0178 43.2751 58.152 43.4077 58.321 43.517C58.4901 43.6231 58.6773 43.7126 58.8828 43.7855C59.0883 43.8584 59.2955 43.9197 59.5043 43.9695L60.4588 44.2081C60.8433 44.2976 61.2128 44.4186 61.5675 44.571C61.9254 44.7235 62.2453 44.9157 62.527 45.1477C62.812 45.3797 63.0374 45.6598 63.2031 45.9879C63.3688 46.3161 63.4517 46.7005 63.4517 47.1413C63.4517 47.7379 63.2992 48.2633 62.9943 48.7173C62.6894 49.1681 62.2486 49.5211 61.6719 49.7763C61.0985 50.0282 60.4041 50.1541 59.5888 50.1541C58.7966 50.1541 58.1089 50.0315 57.5256 49.7862C56.9455 49.541 56.4915 49.183 56.1634 48.7124C55.8385 48.2417 55.6629 47.6683 55.6364 46.9922H57.451C57.4775 47.3468 57.5869 47.6418 57.7791 47.8771C57.9714 48.1125 58.2216 48.2881 58.5298 48.4041C58.8414 48.5201 59.1894 48.5781 59.5739 48.5781C59.9749 48.5781 60.3262 48.5185 60.6278 48.3991C60.9328 48.2765 61.1714 48.1075 61.3438 47.892C61.5161 47.6733 61.6039 47.4181 61.6072 47.1264C61.6039 46.8613 61.526 46.6425 61.3736 46.4702C61.2211 46.2945 61.0073 46.1487 60.7322 46.0327C60.4605 45.9134 60.1423 45.8073 59.7777 45.7145L58.6193 45.4162C57.7808 45.2008 57.1179 44.8743 56.6307 44.4368C56.1468 43.996 55.9048 43.411 55.9048 42.6818C55.9048 42.0819 56.0672 41.5566 56.392 41.1058C56.7202 40.6551 57.166 40.3054 57.7294 40.0568C58.2929 39.8049 58.9309 39.679 59.6435 39.679C60.366 39.679 60.9991 39.8049 61.5426 40.0568C62.0895 40.3054 62.5187 40.6518 62.8303 41.0959C63.1418 41.5367 63.3026 42.0438 63.3125 42.6172H61.5376ZM66.5925 50L64.4348 42.3636H66.2694L67.6117 47.733H67.6813L69.0534 42.3636H70.8681L72.2402 47.7031H72.3148L73.6373 42.3636H75.4767L73.3141 50H71.4398L70.008 44.8395H69.9036L68.4718 50H66.5925ZM79.8952 50.1491C79.1296 50.1491 78.4684 49.9901 77.9116 49.6719C77.3581 49.3504 76.9322 48.8963 76.6339 48.3097C76.3356 47.7197 76.1864 47.0253 76.1864 46.2266C76.1864 45.4411 76.3356 44.7517 76.6339 44.1584C76.9355 43.5618 77.3564 43.0978 77.8967 42.7663C78.4369 42.4316 79.0716 42.2642 79.8008 42.2642C80.2714 42.2642 80.7156 42.3404 81.1332 42.4929C81.5541 42.642 81.9253 42.8741 82.2468 43.1889C82.5716 43.5038 82.8268 43.9048 83.0124 44.392C83.198 44.8759 83.2908 45.4527 83.2908 46.1222V46.674H77.0316V45.4609H81.5657C81.5624 45.1162 81.4878 44.8097 81.342 44.5412C81.1961 44.2694 80.9923 44.0556 80.7305 43.8999C80.4719 43.7441 80.1703 43.6662 79.8256 43.6662C79.4577 43.6662 79.1346 43.7557 78.8562 43.9347C78.5778 44.1103 78.3607 44.3423 78.2049 44.6307C78.0524 44.9157 77.9746 45.2289 77.9712 45.5703V46.6293C77.9712 47.0734 78.0524 47.4545 78.2148 47.7727C78.3772 48.0876 78.6043 48.3295 78.896 48.4986C79.1876 48.6643 79.529 48.7472 79.9201 48.7472C80.1819 48.7472 80.4189 48.7107 80.631 48.6378C80.8432 48.5616 81.0271 48.4505 81.1829 48.3047C81.3387 48.1589 81.4563 47.9782 81.5359 47.7628L83.2163 47.9517C83.1102 48.3958 82.908 48.7836 82.6097 49.1151C82.3147 49.4432 81.9369 49.6984 81.4762 49.8807C81.0155 50.0597 80.4885 50.1491 79.8952 50.1491ZM86.6131 45.5256V50H84.8134V42.3636H86.5336V43.6612H86.623C86.7987 43.2337 87.0788 42.8939 87.4632 42.642C87.851 42.3902 88.33 42.2642 88.9 42.2642C89.427 42.2642 89.8861 42.3769 90.2772 42.6023C90.6716 42.8277 90.9765 43.1541 91.1919 43.5817C91.4107 44.0092 91.5184 44.5279 91.5151 45.1378V50H89.7154V45.4162C89.7154 44.9058 89.5828 44.5064 89.3176 44.218C89.0558 43.9297 88.6929 43.7855 88.2289 43.7855C87.914 43.7855 87.6339 43.8551 87.3887 43.9943C87.1467 44.1302 86.9561 44.3274 86.8169 44.5859C86.681 44.8445 86.6131 45.1577 86.6131 45.5256ZM96.8968 50V39.8182H100.795C101.53 39.8182 102.142 39.9342 102.629 40.1662C103.12 40.3949 103.486 40.7081 103.728 41.1058C103.973 41.5036 104.096 41.9543 104.096 42.4581C104.096 42.8724 104.016 43.227 103.857 43.522C103.698 43.8137 103.484 44.0507 103.216 44.233C102.947 44.4152 102.647 44.5462 102.316 44.6257V44.7251C102.677 44.745 103.023 44.8561 103.355 45.0582C103.69 45.2571 103.963 45.5388 104.175 45.9034C104.387 46.268 104.493 46.7088 104.493 47.2259C104.493 47.7528 104.366 48.2268 104.111 48.6477C103.855 49.0653 103.471 49.3951 102.957 49.6371C102.443 49.879 101.797 50 101.018 50H96.8968ZM98.7413 48.4588H100.725C101.394 48.4588 101.877 48.3312 102.172 48.076C102.47 47.8175 102.619 47.486 102.619 47.0817C102.619 46.7801 102.545 46.5083 102.395 46.2663C102.246 46.0211 102.034 45.8288 101.759 45.6896C101.484 45.5471 101.156 45.4759 100.775 45.4759H98.7413V48.4588ZM98.7413 44.1484H100.566C100.884 44.1484 101.171 44.0904 101.426 43.9744C101.681 43.8551 101.882 43.6877 102.028 43.4723C102.177 43.2536 102.251 42.995 102.251 42.6967C102.251 42.3023 102.112 41.9775 101.834 41.7223C101.559 41.4671 101.149 41.3395 100.606 41.3395H98.7413V44.1484ZM108.216 50.1541C107.732 50.1541 107.296 50.0679 106.908 49.8956C106.524 49.7199 106.219 49.4614 105.994 49.12C105.772 48.7786 105.661 48.3577 105.661 47.8572C105.661 47.4264 105.74 47.0701 105.899 46.7884C106.058 46.5066 106.275 46.2812 106.55 46.1122C106.826 45.9432 107.135 45.8156 107.48 45.7294C107.828 45.6399 108.188 45.5753 108.559 45.5355C109.006 45.4891 109.369 45.4477 109.648 45.4112C109.926 45.3714 110.128 45.3118 110.254 45.2322C110.384 45.1494 110.448 45.0218 110.448 44.8494V44.8196C110.448 44.4451 110.337 44.1551 110.115 43.9496C109.893 43.7441 109.573 43.6413 109.156 43.6413C108.715 43.6413 108.365 43.7375 108.107 43.9297C107.851 44.1219 107.679 44.349 107.589 44.6108L105.909 44.3722C106.042 43.9081 106.26 43.5204 106.565 43.2088C106.87 42.8939 107.243 42.6586 107.684 42.5028C108.125 42.3438 108.612 42.2642 109.146 42.2642C109.513 42.2642 109.88 42.3073 110.244 42.3935C110.609 42.4796 110.942 42.6222 111.244 42.821C111.545 43.0166 111.787 43.2834 111.969 43.6214C112.155 43.9595 112.248 44.3821 112.248 44.8892V50H110.518V48.951H110.458C110.349 49.1631 110.195 49.362 109.996 49.5476C109.8 49.7299 109.553 49.8774 109.255 49.9901C108.96 50.0994 108.614 50.1541 108.216 50.1541ZM108.683 48.8317C109.045 48.8317 109.358 48.7604 109.623 48.6179C109.888 48.4721 110.092 48.2798 110.234 48.0412C110.38 47.8026 110.453 47.5424 110.453 47.2607V46.3608C110.397 46.4072 110.301 46.4503 110.165 46.4901C110.032 46.5298 109.883 46.5646 109.717 46.5945C109.552 46.6243 109.388 46.6508 109.225 46.674C109.063 46.6972 108.922 46.7171 108.803 46.7337C108.534 46.7701 108.294 46.8298 108.082 46.9126C107.87 46.9955 107.702 47.1115 107.58 47.2607C107.457 47.4065 107.396 47.5954 107.396 47.8274C107.396 48.1589 107.517 48.4091 107.759 48.5781C108 48.7472 108.309 48.8317 108.683 48.8317ZM115.857 45.5256V50H114.058V42.3636H115.778V43.6612H115.867C116.043 43.2337 116.323 42.8939 116.707 42.642C117.095 42.3902 117.574 42.2642 118.144 42.2642C118.671 42.2642 119.13 42.3769 119.521 42.6023C119.916 42.8277 120.221 43.1541 120.436 43.5817C120.655 44.0092 120.763 44.5279 120.759 45.1378V50H118.96V45.4162C118.96 44.9058 118.827 44.5064 118.562 44.218C118.3 43.9297 117.937 43.7855 117.473 43.7855C117.158 43.7855 116.878 43.8551 116.633 43.9943C116.391 44.1302 116.2 44.3274 116.061 44.5859C115.925 44.8445 115.857 45.1577 115.857 45.5256ZM124.229 47.6037L124.224 45.4311H124.513L127.257 42.3636H129.36L125.984 46.1222H125.612L124.229 47.6037ZM122.589 50V39.8182H124.388V50H122.589ZM127.381 50L124.896 46.5249L126.109 45.2571L129.534 50H127.381Z" fill="white"/>
<defs>
<linearGradient id="paint0_linear_108_609" x1="274.678" y1="-37.7749" x2="52.5224" y2="24.1746" gradientUnits="userSpaceOnUse">
<stop stop-color="#06B7DE" stop-opacity="0"/>
<stop offset="0.442708" stop-color="#379FFF"/>
<stop offset="1" stop-color="#0791AF" stop-opacity="0"/>
</linearGradient>
<linearGradient id="paint1_linear_108_609" x1="289.499" y1="27.9992" x2="240.054" y2="207.351" gradientUnits="userSpaceOnUse">
<stop stop-color="#06B7DE" stop-opacity="0"/>
<stop offset="0.442708" stop-color="#379FFF"/>
<stop offset="1" stop-color="#0791AF" stop-opacity="0"/>
</linearGradient>
</defs>
</svg>
