<svg width="290" height="145" viewBox="0 0 290 145" fill="none" xmlns="http://www.w3.org/2000/svg">
<rect width="290" height="142.187" rx="16" fill="#4D54E4"/>
<mask id="mask0_108_609" style="mask-type:alpha" maskUnits="userSpaceOnUse" x="0" y="0" width="290" height="145">
<rect width="290" height="145" rx="16" fill="#0177FB"/>
</mask>
<g mask="url(#mask0_108_609)">
<path d="M234.125 -13.1588C232.41 3.98153 224.203 19.9471 211.03 31.7702C197.857 43.5933 180.614 50.4694 162.507 51.1205C144.399 51.7717 126.659 46.1534 112.583 35.3101C98.5073 24.4668 89.0541 9.13623 85.9807 -7.8319L116.121 -12.7606C117.937 -2.73185 123.524 6.32905 131.844 12.7378C140.163 19.1465 150.648 22.4671 161.35 22.0823C172.052 21.6975 182.243 17.6334 190.029 10.6456C197.815 3.65775 202.665 -5.77845 203.679 -15.9089L234.125 -13.1588Z" fill="url(#paint0_linear_108_609)"/>
<path d="M223.5 50.3282C249.753 39.8037 278.044 43.9461 291.272 47.8697L290 75.7967C282.708 74.0272 269.951 71.562 258.351 71.562C243.851 71.562 222.737 79.4092 208.237 89.7952C193.737 100.181 176.693 117.03 168.298 124.415C161.582 130.324 150.237 138.725 145.404 142.187H64C124.035 138.725 173.386 79.8708 179.491 75.4856C185.596 71.1004 190.684 63.4838 223.5 50.3282Z" fill="url(#paint1_linear_108_609)"/>
</g>
<path d="M232.949 109.268L231.017 120.905H228.892L225.057 113.581H224.966L223.744 120.905H221.284L223.216 109.268H225.375L229.193 116.586H229.29L230.5 109.268H232.949ZM235.055 120.905H232.419L238.368 109.268H241.538L243.618 120.905H240.982L239.567 111.927H239.476L235.055 120.905ZM235.658 116.331H241.885L241.555 118.251H235.328L235.658 116.331ZM245.018 120.905L246.95 109.268H251.541C252.42 109.268 253.142 109.437 253.706 109.774C254.274 110.107 254.672 110.571 254.899 111.166C255.13 111.757 255.183 112.439 255.058 113.211C254.929 113.988 254.649 114.672 254.217 115.263C253.789 115.85 253.232 116.308 252.547 116.638C251.861 116.967 251.07 117.132 250.172 117.132H247.246L247.57 115.16H250.098C250.575 115.16 250.982 115.079 251.32 114.916C251.661 114.749 251.931 114.52 252.132 114.229C252.333 113.933 252.464 113.594 252.524 113.211C252.589 112.821 252.568 112.482 252.462 112.194C252.356 111.907 252.161 111.683 251.876 111.524C251.596 111.361 251.219 111.28 250.746 111.28H249.087L247.479 120.905H245.018ZM256.04 120.905H253.403L259.352 109.268H262.523L264.602 120.905H261.966L260.551 111.927H260.46L256.04 120.905ZM256.642 116.331H262.869L262.54 118.251H256.312L256.642 116.331ZM273.413 112.649C273.432 112.175 273.294 111.81 272.999 111.552C272.707 111.295 272.266 111.166 271.675 111.166C271.273 111.166 270.925 111.223 270.629 111.336C270.334 111.446 270.097 111.6 269.919 111.797C269.745 111.99 269.637 112.213 269.595 112.467C269.554 112.675 269.567 112.857 269.635 113.013C269.707 113.168 269.819 113.302 269.97 113.416C270.125 113.526 270.309 113.622 270.521 113.706C270.733 113.785 270.959 113.854 271.197 113.91L272.197 114.16C272.686 114.274 273.125 114.425 273.516 114.615C273.91 114.804 274.239 115.037 274.504 115.314C274.773 115.59 274.963 115.916 275.072 116.291C275.182 116.666 275.197 117.096 275.118 117.581C274.997 118.293 274.714 118.91 274.271 119.433C273.828 119.952 273.247 120.355 272.527 120.643C271.807 120.927 270.974 121.069 270.027 121.069C269.088 121.069 268.294 120.925 267.646 120.638C266.999 120.35 266.527 119.924 266.232 119.359C265.94 118.791 265.853 118.088 265.97 117.251H268.351C268.309 117.641 268.366 117.967 268.521 118.229C268.68 118.486 268.917 118.681 269.232 118.814C269.546 118.943 269.915 119.007 270.339 119.007C270.76 119.007 271.133 118.946 271.459 118.825C271.788 118.704 272.055 118.535 272.26 118.319C272.464 118.104 272.589 117.855 272.635 117.575C272.68 117.314 272.641 117.094 272.516 116.916C272.391 116.738 272.19 116.586 271.913 116.461C271.641 116.333 271.302 116.219 270.896 116.121L269.68 115.802C268.741 115.564 268.031 115.191 267.55 114.683C267.069 114.175 266.896 113.492 267.033 112.632C267.154 111.927 267.447 111.312 267.913 110.785C268.383 110.255 268.974 109.844 269.686 109.552C270.402 109.257 271.184 109.109 272.033 109.109C272.896 109.109 273.625 109.259 274.22 109.558C274.815 109.854 275.249 110.266 275.521 110.797C275.794 111.327 275.877 111.944 275.771 112.649H273.413Z" fill="white"/>
<path fill-rule="evenodd" clip-rule="evenodd" d="M24.379 55.1227C23.3305 54.0946 23.3296 52.4279 24.379 51.3989L28.2383 47.6145C29.2715 46.6013 29.2706 44.9593 28.2374 43.9461L24.3781 40.1617C23.3296 39.1336 23.3296 37.4661 24.3781 36.4379L24.379 36.437C25.4275 35.4089 27.1279 35.4089 28.1764 36.437L35.834 43.9461C36.8664 44.9584 36.8663 46.6013 35.8331 47.6145L28.1764 55.1226C27.1271 56.1516 25.4274 56.1508 24.379 55.1227ZM22.7995 49.3435C22.6076 49.1553 22.5009 48.8994 22.5009 48.6338C22.5 48.3673 22.6076 48.1123 22.8005 47.9232C23.2543 47.4781 23.8373 46.9065 24.2866 46.4659C24.6732 46.0868 24.6731 45.4729 24.2866 45.0939C23.8372 44.6532 23.2542 44.0816 22.8004 43.6366C22.6085 43.4484 22.5009 43.1933 22.5 42.9268C22.5 42.6612 22.6085 42.4053 22.8005 42.2171C22.9924 42.0288 23.2525 41.9233 23.5242 41.9224C23.796 41.9233 24.0561 42.0288 24.248 42.2171C25.0624 43.0156 26.3772 44.305 27.1827 45.0948C27.5683 45.4729 27.5683 46.0868 27.1818 46.4659L24.2481 49.3427C24.0552 49.5318 23.7951 49.6373 23.5242 49.6373C23.2534 49.6373 22.9915 49.5317 22.7995 49.3435Z" fill="white"/>
<path fill-rule="evenodd" clip-rule="evenodd" d="M31.9988 40.176L35.841 43.9437C36.8743 44.9569 36.8743 46.5999 35.841 47.613L34.5477 48.8812L30.7046 45.1126C29.6722 44.1003 29.6722 42.4575 30.7054 41.4443L31.9988 40.176Z" fill="white"/>
<path fill-rule="evenodd" clip-rule="evenodd" d="M42.9804 33.1311C44.0289 34.1593 44.0297 35.8259 42.9804 36.8549L39.1211 40.6393C38.0879 41.6525 38.0888 43.2946 39.122 44.3077L42.9813 48.0921C44.0298 49.1203 44.0298 50.7878 42.9813 51.8159L42.9804 51.8168C41.9319 52.8449 40.2314 52.8449 39.183 51.8168L31.5253 44.3077C30.493 43.2954 30.493 41.6525 31.5263 40.6393L39.183 33.1312C40.2323 32.1022 41.932 32.103 42.9804 33.1311ZM45.3051 38.9112C45.497 39.0994 45.6047 39.3544 45.6047 39.62C45.6056 39.8865 45.4971 40.1424 45.3051 40.3307C44.8513 40.7757 44.2684 41.3473 43.819 41.788C43.4325 42.167 43.4324 42.7809 43.8181 43.1591C44.2683 43.6006 44.8504 44.1714 45.3051 44.6173C45.4971 44.8055 45.6047 45.0605 45.6056 45.327C45.6047 45.5935 45.4971 45.8486 45.3051 46.0368C45.1132 46.225 44.8531 46.3305 44.5814 46.3314C44.3096 46.3305 44.0495 46.225 43.8576 46.0368C43.0423 45.2374 41.7274 43.948 40.9229 43.1591C40.5364 42.78 40.5364 42.1662 40.923 41.7871L43.8567 38.9103C44.0486 38.7221 44.3105 38.6165 44.5813 38.6165C44.8522 38.6165 45.1123 38.7221 45.3042 38.9103L45.3051 38.9112Z" fill="white"/>
<path d="M61.5376 41.9188C61.4912 41.4846 61.2957 41.1465 60.951 40.9046C60.6096 40.6626 60.1655 40.5416 59.6186 40.5416C59.2341 40.5416 58.9044 40.5996 58.6293 40.7156C58.3542 40.8316 58.1437 40.9891 57.9979 41.1879C57.852 41.3868 57.7775 41.6138 57.7741 41.869C57.7741 42.0812 57.8222 42.2651 57.9183 42.4209C58.0178 42.5767 58.152 42.7092 58.321 42.8186C58.4901 42.9247 58.6773 43.0142 58.8828 43.0871C59.0883 43.16 59.2955 43.2213 59.5043 43.271L60.4588 43.5097C60.8433 43.5992 61.2128 43.7201 61.5675 43.8726C61.9254 44.0251 62.2453 44.2173 62.527 44.4493C62.812 44.6813 63.0374 44.9614 63.2031 45.2895C63.3688 45.6176 63.4517 46.0021 63.4517 46.4429C63.4517 47.0395 63.2992 47.5648 62.9943 48.0189C62.6894 48.4697 62.2486 48.8226 61.6719 49.0779C61.0985 49.3297 60.4041 49.4557 59.5888 49.4557C58.7966 49.4557 58.1089 49.3331 57.5256 49.0878C56.9455 48.8425 56.4915 48.4846 56.1634 48.0139C55.8385 47.5433 55.6629 46.9699 55.6364 46.2938H57.451C57.4775 46.6484 57.5869 46.9434 57.7791 47.1787C57.9714 47.414 58.2216 47.5897 58.5298 47.7057C58.8414 47.8217 59.1894 47.8797 59.5739 47.8797C59.9749 47.8797 60.3262 47.82 60.6278 47.7007C60.9328 47.5781 61.1714 47.4091 61.3438 47.1936C61.5161 46.9749 61.6039 46.7197 61.6072 46.428C61.6039 46.1628 61.526 45.9441 61.3736 45.7717C61.2211 45.5961 61.0073 45.4502 60.7322 45.3342C60.4605 45.2149 60.1423 45.1089 59.7777 45.0161L58.6193 44.7178C57.7808 44.5023 57.1179 44.1759 56.6307 43.7384C56.1468 43.2976 55.9048 42.7126 55.9048 41.9834C55.9048 41.3835 56.0672 40.8582 56.392 40.4074C56.7202 39.9566 57.166 39.607 57.7294 39.3584C58.2929 39.1065 58.9309 38.9806 59.6435 38.9806C60.366 38.9806 60.9991 39.1065 61.5426 39.3584C62.0895 39.607 62.5187 39.9533 62.8303 40.3975C63.1418 40.8383 63.3026 41.3454 63.3125 41.9188H61.5376ZM66.5925 49.3016L64.4348 41.6652H66.2694L67.6117 47.0345H67.6813L69.0534 41.6652H70.8681L72.2402 47.0047H72.3148L73.6373 41.6652H75.4767L73.3141 49.3016H71.4398L70.008 44.1411H69.9036L68.4718 49.3016H66.5925ZM79.8952 49.4507C79.1296 49.4507 78.4684 49.2916 77.9116 48.9734C77.3581 48.652 76.9322 48.1979 76.6339 47.6112C76.3356 47.0213 76.1864 46.3269 76.1864 45.5281C76.1864 44.7426 76.3356 44.0532 76.6339 43.46C76.9355 42.8634 77.3564 42.3993 77.8967 42.0679C78.4369 41.7332 79.0716 41.5658 79.8008 41.5658C80.2714 41.5658 80.7156 41.642 81.1332 41.7945C81.5541 41.9436 81.9253 42.1756 82.2468 42.4905C82.5716 42.8054 82.8268 43.2064 83.0124 43.6936C83.198 44.1775 83.2908 44.7542 83.2908 45.4237V45.9756H77.0316V44.7625H81.5657C81.5624 44.4178 81.4878 44.1112 81.342 43.8428C81.1961 43.571 80.9923 43.3572 80.7305 43.2014C80.4719 43.0457 80.1703 42.9678 79.8256 42.9678C79.4577 42.9678 79.1346 43.0573 78.8562 43.2362C78.5778 43.4119 78.3607 43.6439 78.2049 43.9323C78.0524 44.2173 77.9746 44.5305 77.9712 44.8719V45.9308C77.9712 46.375 78.0524 46.7561 78.2148 47.0743C78.3772 47.3892 78.6043 47.6311 78.896 47.8002C79.1876 47.9659 79.529 48.0487 79.9201 48.0487C80.1819 48.0487 80.4189 48.0123 80.631 47.9394C80.8432 47.8631 81.0271 47.7521 81.1829 47.6063C81.3387 47.4604 81.4563 47.2798 81.5359 47.0644L83.2163 47.2533C83.1102 47.6974 82.908 48.0852 82.6097 48.4166C82.3147 48.7448 81.9369 49 81.4762 49.1823C81.0155 49.3612 80.4885 49.4507 79.8952 49.4507ZM86.6131 44.8271V49.3016H84.8134V41.6652H86.5336V42.9628H86.623C86.7987 42.5352 87.0788 42.1955 87.4632 41.9436C87.851 41.6917 88.33 41.5658 88.9 41.5658C89.427 41.5658 89.8861 41.6785 90.2772 41.9038C90.6716 42.1292 90.9765 42.4557 91.1919 42.8833C91.4107 43.3108 91.5184 43.8295 91.5151 44.4394V49.3016H89.7154V44.7178C89.7154 44.2074 89.5828 43.808 89.3176 43.5196C89.0558 43.2313 88.6929 43.0871 88.2289 43.0871C87.914 43.0871 87.6339 43.1567 87.3887 43.2959C87.1467 43.4318 86.9561 43.629 86.8169 43.8875C86.681 44.146 86.6131 44.4592 86.6131 44.8271ZM96.8968 49.3016V39.1198H100.795C101.53 39.1198 102.142 39.2358 102.629 39.4678C103.12 39.6965 103.486 40.0097 103.728 40.4074C103.973 40.8051 104.096 41.2559 104.096 41.7597C104.096 42.174 104.016 42.5286 103.857 42.8236C103.698 43.1153 103.484 43.3522 103.216 43.5345C102.947 43.7168 102.647 43.8477 102.316 43.9273V44.0267C102.677 44.0466 103.023 44.1576 103.355 44.3598C103.69 44.5587 103.963 44.8404 104.175 45.205C104.387 45.5696 104.493 46.0104 104.493 46.5274C104.493 47.0544 104.366 47.5284 104.111 47.9493C103.855 48.3669 103.471 48.6967 102.957 48.9386C102.443 49.1806 101.797 49.3016 101.018 49.3016H96.8968ZM98.7413 47.7604H100.725C101.394 47.7604 101.877 47.6328 102.172 47.3776C102.47 47.119 102.619 46.7876 102.619 46.3833C102.619 46.0816 102.545 45.8099 102.395 45.5679C102.246 45.3226 102.034 45.1304 101.759 44.9912C101.484 44.8487 101.156 44.7774 100.775 44.7774H98.7413V47.7604ZM98.7413 43.45H100.566C100.884 43.45 101.171 43.392 101.426 43.276C101.681 43.1567 101.882 42.9893 102.028 42.7739C102.177 42.5551 102.251 42.2966 102.251 41.9983C102.251 41.6039 102.112 41.2791 101.834 41.0239C101.559 40.7687 101.149 40.6411 100.606 40.6411H98.7413V43.45ZM108.216 49.4557C107.732 49.4557 107.296 49.3695 106.908 49.1972C106.524 49.0215 106.219 48.763 105.994 48.4216C105.772 48.0802 105.661 47.6593 105.661 47.1588C105.661 46.7279 105.74 46.3717 105.899 46.0899C106.058 45.8082 106.275 45.5828 106.55 45.4138C106.826 45.2448 107.135 45.1172 107.48 45.031C107.828 44.9415 108.188 44.8769 108.559 44.8371C109.006 44.7907 109.369 44.7493 109.648 44.7128C109.926 44.673 110.128 44.6134 110.254 44.5338C110.384 44.451 110.448 44.3234 110.448 44.151V44.1212C110.448 43.7467 110.337 43.4566 110.115 43.2511C109.893 43.0457 109.573 42.9429 109.156 42.9429C108.715 42.9429 108.365 43.039 108.107 43.2313C107.851 43.4235 107.679 43.6505 107.589 43.9124L105.909 43.6737C106.042 43.2097 106.26 42.8219 106.565 42.5104C106.87 42.1955 107.243 41.9602 107.684 41.8044C108.125 41.6453 108.612 41.5658 109.146 41.5658C109.513 41.5658 109.88 41.6089 110.244 41.695C110.609 41.7812 110.942 41.9237 111.244 42.1226C111.545 42.3181 111.787 42.585 111.969 42.923C112.155 43.2611 112.248 43.6837 112.248 44.1908V49.3016H110.518V48.2526H110.458C110.349 48.4647 110.195 48.6636 109.996 48.8492C109.8 49.0315 109.553 49.1789 109.255 49.2916C108.96 49.401 108.614 49.4557 108.216 49.4557ZM108.683 48.1333C109.045 48.1333 109.358 48.062 109.623 47.9195C109.888 47.7736 110.092 47.5814 110.234 47.3428C110.38 47.1041 110.453 46.844 110.453 46.5622V45.6624C110.397 45.7088 110.301 45.7519 110.165 45.7916C110.032 45.8314 109.883 45.8662 109.717 45.896C109.552 45.9259 109.388 45.9524 109.225 45.9756C109.063 45.9988 108.922 46.0187 108.803 46.0352C108.534 46.0717 108.294 46.1314 108.082 46.2142C107.87 46.2971 107.702 46.4131 107.58 46.5622C107.457 46.7081 107.396 46.897 107.396 47.129C107.396 47.4604 107.517 47.7107 107.759 47.8797C108 48.0487 108.309 48.1333 108.683 48.1333ZM115.857 44.8271V49.3016H114.058V41.6652H115.778V42.9628H115.867C116.043 42.5352 116.323 42.1955 116.707 41.9436C117.095 41.6917 117.574 41.5658 118.144 41.5658C118.671 41.5658 119.13 41.6785 119.521 41.9038C119.916 42.1292 120.221 42.4557 120.436 42.8833C120.655 43.3108 120.763 43.8295 120.759 44.4394V49.3016H118.96V44.7178C118.96 44.2074 118.827 43.808 118.562 43.5196C118.3 43.2313 117.937 43.0871 117.473 43.0871C117.158 43.0871 116.878 43.1567 116.633 43.2959C116.391 43.4318 116.2 43.629 116.061 43.8875C115.925 44.146 115.857 44.4592 115.857 44.8271ZM124.229 46.9053L124.224 44.7327H124.513L127.257 41.6652H129.36L125.984 45.4237H125.612L124.229 46.9053ZM122.589 49.3016V39.1198H124.388V49.3016H122.589ZM127.381 49.3016L124.896 45.8264L126.109 44.5587L129.534 49.3016H127.381Z" fill="white"/>
<defs>
<linearGradient id="paint0_linear_108_609" x1="283.475" y1="-37.042" x2="55.9716" y2="29.7262" gradientUnits="userSpaceOnUse">
<stop stop-color="#06B7DE" stop-opacity="0"/>
<stop offset="0.442708" stop-color="#379FFF"/>
<stop offset="1" stop-color="#0791AF" stop-opacity="0"/>
</linearGradient>
<linearGradient id="paint1_linear_108_609" x1="299.206" y1="28.4304" x2="256.52" y2="199.086" gradientUnits="userSpaceOnUse">
<stop stop-color="#06B7DE" stop-opacity="0"/>
<stop offset="0.442708" stop-color="#379FFF"/>
<stop offset="1" stop-color="#0791AF" stop-opacity="0"/>
</linearGradient>
</defs>
</svg>
