<svg width="48" height="48" viewBox="0 0 48 48" fill="none" xmlns="http://www.w3.org/2000/svg">
<path fill-rule="evenodd" clip-rule="evenodd" d="M4.75791 46.4267C2.66098 44.3297 2.65928 40.9305 4.758 38.8317L12.4766 31.1132C14.543 29.0467 14.5412 25.6977 12.4747 23.6312L4.75616 15.9126C2.65923 13.8157 2.65923 10.4147 4.75616 8.31782L4.758 8.31598C6.85493 6.21905 10.2559 6.21905 12.3528 8.31598L27.6681 23.6312C29.7327 25.6959 29.7327 29.0467 27.6662 31.1132L12.3528 46.4266C10.2541 48.5253 6.85484 48.5236 4.75791 46.4267ZM1.59909 34.6397C1.21522 34.2558 1.00184 33.7338 1.00184 33.1921C1.00005 32.6486 1.21527 32.1284 1.60093 31.7427C2.50858 30.8351 3.67451 29.6692 4.57319 28.7705C5.34631 27.9974 5.34622 26.7453 4.5731 25.9722C3.67442 25.0735 2.5085 23.9076 1.60085 22.9999C1.21698 22.616 1.00179 22.0958 1 21.5523C1 21.0105 1.21706 20.4886 1.60093 20.1047C1.9848 19.7209 2.50497 19.5056 3.04848 19.5038C3.59199 19.5056 4.11216 19.7209 4.49603 20.1047C6.12478 21.7335 8.75449 24.3632 10.3653 25.974C11.1366 26.7453 11.1367 27.9974 10.3636 28.7705L4.49611 34.6379C4.11045 35.0236 3.5902 35.2388 3.04848 35.2388C2.50676 35.2388 1.98296 35.0235 1.59909 34.6397Z" fill="#8C91F8"/>
<path fill-rule="evenodd" clip-rule="evenodd" d="M19.9976 15.9418L27.6821 23.6263C29.7485 25.6928 29.7485 29.0437 27.6821 31.1101L25.0955 33.6967L17.4091 26.0104C15.3445 23.9457 15.3444 20.595 17.4109 18.5285L19.9976 15.9418Z" fill="#0D7186"/>
<path fill-rule="evenodd" clip-rule="evenodd" d="M41.9608 1.57332C44.0578 3.67025 44.0595 7.06952 41.9608 9.16824L34.2422 16.8868C32.1757 18.9533 32.1776 22.3023 34.244 24.3687L41.9626 32.0873C44.0595 34.1843 44.0595 37.5852 41.9626 39.6822L41.9607 39.684C39.8638 41.7809 36.4628 41.7809 34.3659 39.684L19.0507 24.3687C16.986 22.3041 16.9861 18.9533 19.0525 16.8868L34.3659 1.57341C36.4646 -0.525309 39.8639 -0.523603 41.9608 1.57332ZM46.6102 13.3621C46.9941 13.7459 47.2094 14.2661 47.2094 14.8079C47.2112 15.3514 46.9942 15.8734 46.6103 16.2572C45.7026 17.1649 44.5367 18.3308 43.638 19.2295C42.8649 20.0026 42.8649 21.2547 43.6362 22.0261C44.5367 22.9265 45.7008 24.0907 46.6103 25.0002C46.9942 25.384 47.2094 25.9042 47.2112 26.4477C47.2094 26.9912 46.9942 27.5114 46.6103 27.8953C46.2264 28.2791 45.7063 28.4944 45.1627 28.4962C44.6192 28.4944 44.099 28.2792 43.7151 27.8953C42.0846 26.2648 39.4549 23.6351 37.8458 22.0261C37.0727 21.2529 37.0728 20.0009 37.8459 19.2278L43.7134 13.3603C44.0972 12.9764 44.6209 12.7611 45.1627 12.7611C45.7044 12.7611 46.2246 12.9764 46.6085 13.3603L46.6102 13.3621Z" fill="#4D54E4"/>
</svg>
