<svg width="22" height="18" viewBox="0 0 22 18" fill="none" xmlns="http://www.w3.org/2000/svg">
<path d="M2 0C0.895 0 0 0.895 0 2V16C0 17.105 0.895 18 2 18H10V16.3848C10 14.4968 11.1413 12.8954 12.9473 11.9414C12.3553 11.1194 12 10.112 12 9C12 7.37 12.792 5.93544 14 5.02344V2C14 0.895 13.105 0 12 0H2ZM4.5 4H5.5C5.776 4 6 4.224 6 4.5V5.5C6 5.776 5.776 6 5.5 6H4.5C4.224 6 4 5.776 4 5.5V4.5C4 4.224 4.224 4 4.5 4ZM8.5 4H9.5C9.776 4 10 4.224 10 4.5V5.5C10 5.776 9.776 6 9.5 6H8.5C8.224 6 8 5.776 8 5.5V4.5C8 4.224 8.224 4 8.5 4ZM17 6C16.2044 6 15.4413 6.31607 14.8787 6.87868C14.3161 7.44129 14 8.20435 14 9C14 9.79565 14.3161 10.5587 14.8787 11.1213C15.4413 11.6839 16.2044 12 17 12C17.7956 12 18.5587 11.6839 19.1213 11.1213C19.6839 10.5587 20 9.79565 20 9C20 8.20435 19.6839 7.44129 19.1213 6.87868C18.5587 6.31607 17.7956 6 17 6ZM4.5 8H5.5C5.776 8 6 8.224 6 8.5V9.5C6 9.776 5.776 10 5.5 10H4.5C4.224 10 4 9.776 4 9.5V8.5C4 8.224 4.224 8 4.5 8ZM8.5 8H9.5C9.776 8 10 8.224 10 8.5V9.5C10 9.776 9.776 10 9.5 10H8.5C8.224 10 8 9.776 8 9.5V8.5C8 8.224 8.224 8 8.5 8ZM4.5 12H5.5C5.776 12 6 12.224 6 12.5V13.5C6 13.776 5.776 14 5.5 14H4.5C4.224 14 4 13.776 4 13.5V12.5C4 12.224 4.224 12 4.5 12ZM8.5 12H9.5C9.776 12 10 12.224 10 12.5V13.5C10 13.776 9.776 14 9.5 14H8.5C8.224 14 8 13.776 8 13.5V12.5C8 12.224 8.224 12 8.5 12ZM17 13C14.149 13 12 14.4558 12 16.3848V17C12 17.552 12.448 18 13 18H21C21.552 18 22 17.552 22 17V16.3848C22 14.4558 19.851 13 17 13Z" fill="#4D54E4"/>
</svg>
