<svg width="25" height="24" viewBox="0 0 25 24" fill="none" xmlns="http://www.w3.org/2000/svg">
<path d="M21.9187 12.7969L17.8181 16.7344C17.709 16.8388 17.5796 16.9215 17.4372 16.9778C17.2948 17.0341 17.1422 17.0629 16.9882 17.0625C16.6776 17.0612 16.3798 16.9435 16.1583 16.7344C16.0491 16.6299 15.9624 16.5057 15.9033 16.3689C15.8442 16.2322 15.8137 16.0856 15.8137 15.9375C15.8137 15.7894 15.8442 15.6428 15.9033 15.5061C15.9624 15.3693 16.0491 15.2451 16.1583 15.1406L18.2574 13.125H10.1539C9.84316 13.125 9.54516 13.0065 9.32544 12.7955C9.10572 12.5845 8.98229 12.2984 8.98229 12C8.98229 11.7016 9.10572 11.4155 9.32544 11.2045C9.54516 10.9935 9.84316 10.875 10.1539 10.875H18.2574L16.1583 8.85938C15.9382 8.64803 15.8146 8.36139 15.8146 8.0625C15.8146 7.76361 15.9382 7.47697 16.1583 7.26562C16.3784 7.05428 16.6769 6.93555 16.9882 6.93555C17.2995 6.93555 17.598 7.05428 17.8181 7.26562L21.9187 11.2031C22.0279 11.3076 22.1146 11.4318 22.1737 11.5686C22.2328 11.7053 22.2633 11.8519 22.2633 12C22.2633 12.1481 22.2328 12.2947 22.1737 12.4314C22.1146 12.5682 22.0279 12.6924 21.9187 12.7969ZM10.1539 19.125H5.07696V4.875H10.1539C10.4646 4.875 10.7626 4.75647 10.9823 4.5455C11.202 4.33452 11.3255 4.04837 11.3255 3.75C11.3255 3.45163 11.202 3.16548 10.9823 2.9545C10.7626 2.74353 10.4646 2.625 10.1539 2.625H4.68643C4.16934 2.62746 3.67416 2.8258 3.30852 3.1769C2.94288 3.528 2.73633 4.00348 2.73376 4.5V19.5C2.73633 19.9965 2.94288 20.472 3.30852 20.8231C3.67416 21.1742 4.16934 21.3725 4.68643 21.375H10.1539C10.4646 21.375 10.7626 21.2565 10.9823 21.0455C11.202 20.8345 11.3255 20.5484 11.3255 20.25C11.3255 19.9516 11.202 19.6655 10.9823 19.4545C10.7626 19.2435 10.4646 19.125 10.1539 19.125Z" fill="black"/>
</svg>
