<svg width="38" height="38" viewBox="0 0 38 38" fill="none" xmlns="http://www.w3.org/2000/svg">
<rect width="38" height="38" rx="4" fill="#FFA6A9"/>
<g clip-path="url(#clip0_133_649)">
<path d="M19.67 9.21698L28.17 13.967C28.4195 14.0916 28.6294 14.2832 28.776 14.5204C28.9226 14.7577 29.0002 15.0311 29 15.31V16.75C29 17.44 28.44 18 27.75 18H27V26H28C28.2652 26 28.5196 26.1053 28.7071 26.2929C28.8946 26.4804 29 26.7348 29 27C29 27.2652 28.8946 27.5196 28.7071 27.7071C28.5196 27.8946 28.2652 28 28 28H10C9.73478 28 9.48043 27.8946 9.29289 27.7071C9.10536 27.5196 9 27.2652 9 27C9 26.7348 9.10536 26.4804 9.29289 26.2929C9.48043 26.1053 9.73478 26 10 26H11V18H10.25C9.56 18 9 17.44 9 16.75V15.31C9 14.788 9.27 14.308 9.706 14.036L18.329 9.21698C18.5373 9.11278 18.7671 9.05853 19 9.05853C19.2329 9.05853 19.4627 9.11278 19.671 9.21698H19.67ZM25 18H13V26H16V20H18V26H20V20H22V26H25V18ZM19 11.118L11 15.618V16H27V15.618L19 11.118ZM19 13C19.2652 13 19.5196 13.1053 19.7071 13.2929C19.8946 13.4804 20 13.7348 20 14C20 14.2652 19.8946 14.5196 19.7071 14.7071C19.5196 14.8946 19.2652 15 19 15C18.7348 15 18.4804 14.8946 18.2929 14.7071C18.1054 14.5196 18 14.2652 18 14C18 13.7348 18.1054 13.4804 18.2929 13.2929C18.4804 13.1053 18.7348 13 19 13Z" fill="white"/>
</g>
<defs>
<clipPath id="clip0_133_649">
<rect width="24" height="24" fill="white" transform="translate(7 7)"/>
</clipPath>
</defs>
</svg>
