<svg width="38" height="38" viewBox="0 0 38 38" fill="none" xmlns="http://www.w3.org/2000/svg">
<rect width="38" height="38" rx="4" fill="#B38DED"/>
<g clip-path="url(#clip0_133_650)">
<path d="M29.5527 21.7324C29.0859 24.2129 27.7637 26.3926 25.9063 27.9531C24.0371 29.5234 21.6309 30.4688 19.0059 30.4688C16.5391 30.4688 14.2637 29.6348 12.4492 28.2324C10.5938 26.8008 9.22266 24.7754 8.61523 22.4395L9.95508 22.0918C10.4824 24.125 11.6777 25.8887 13.293 27.1367C14.8711 28.3555 16.8516 29.0801 19.0039 29.0801C21.2949 29.0801 23.3926 28.2578 25.0156 26.8945C26.5684 25.5898 27.6914 23.7871 28.1367 21.7305H26.7051L28.8516 19.1152L30.998 21.7305H29.5527V21.7324ZM18.9707 22.4902V20.0391C18.1074 19.8203 17.4766 19.4902 17.0762 19.0488C16.6738 18.6055 16.4707 18.0684 16.4707 17.4355C16.4707 16.7949 16.6992 16.2559 17.1543 15.8223C17.6094 15.3867 18.2148 15.1367 18.9707 15.0703V14.4941H19.9355V15.0703C20.6426 15.1445 21.2031 15.3574 21.623 15.707C22.0391 16.0566 22.3066 16.5254 22.4219 17.1113L20.7363 17.3027C20.6328 16.8418 20.3652 16.5293 19.9355 16.3652V18.6523C21.002 18.9043 21.7285 19.2344 22.1133 19.6367C22.5 20.041 22.6934 20.5586 22.6934 21.1914C22.6934 21.8984 22.4512 22.4922 21.9648 22.9766C21.4785 23.4609 20.8027 23.7617 19.9355 23.8809V24.9746H18.9707V23.8945C18.209 23.8125 17.5918 23.5645 17.1133 23.1465C16.6348 22.7285 16.332 22.1367 16.1992 21.373L17.9238 21.1934C17.9941 21.5059 18.127 21.7734 18.3223 22C18.5176 22.2266 18.7324 22.3887 18.9707 22.4902ZM18.9707 16.3437C18.7109 16.4258 18.5059 16.5605 18.3555 16.748C18.2031 16.9355 18.1289 17.1426 18.1289 17.3691C18.1289 17.5762 18.1973 17.7676 18.3359 17.9453C18.4746 18.1211 18.6875 18.2656 18.9727 18.373V16.3437H18.9707ZM19.9355 22.5879C20.2676 22.5234 20.541 22.3828 20.748 22.168C20.959 21.9512 21.0625 21.6973 21.0625 21.4023C21.0625 21.1426 20.9746 20.916 20.7969 20.7285C20.623 20.5391 20.3359 20.3945 19.9336 20.293V22.5879H19.9355ZM8.45703 17.7383C8.91992 15.2793 10.2227 13.1172 12.0527 11.5586C13.9277 9.96289 16.3555 9 19.0039 9C21.334 9 23.4902 9.74219 25.25 11.0039C27.0566 12.2988 28.4434 14.1406 29.1719 16.2891L28.5156 16.5117L27.8594 16.7344C27.8418 16.6797 27.8223 16.625 27.8027 16.5723C27.1563 14.7734 25.9707 13.2305 24.4434 12.1348C22.9121 11.0371 21.0352 10.3906 19.0059 10.3906C16.6934 10.3906 14.5781 11.2266 12.9492 12.6133C11.418 13.916 10.3145 15.7031 9.87109 17.7383H11.2949L9.14648 20.3535L7 17.7383H8.45703Z" fill="white"/>
</g>
<defs>
<clipPath id="clip0_133_650">
<rect width="24" height="21.4707" fill="white" transform="translate(7 9)"/>
</clipPath>
</defs>
</svg>
