<svg width="38" height="38" viewBox="0 0 38 38" fill="none" xmlns="http://www.w3.org/2000/svg">
<rect width="38" height="38" rx="4" fill="#7587E0"/>
<path fill-rule="evenodd" clip-rule="evenodd" d="M9.37896 30.2133C8.33049 29.1649 8.32964 27.4652 9.379 26.4159L13.2383 22.5566C14.2715 21.5234 14.2706 19.8488 13.2374 18.8156L9.37808 14.9563C8.32962 13.9079 8.32962 12.2074 9.37808 11.1589L9.379 11.158C10.4275 10.1095 12.1279 10.1095 13.1764 11.158L20.834 18.8156C21.8664 19.8479 21.8663 21.5234 20.8331 22.5566L13.1764 30.2133C12.1271 31.2626 10.4274 31.2618 9.37896 30.2133ZM7.79955 24.3198C7.60761 24.1279 7.50092 23.8669 7.50092 23.5961C7.50002 23.3243 7.60764 23.0642 7.80047 22.8714C8.25429 22.4175 8.83725 21.8346 9.28659 21.3852C9.67315 20.9987 9.67311 20.3726 9.28655 19.9861C8.83721 19.5367 8.25425 18.9538 7.80042 18.5C7.60849 18.308 7.5009 18.0479 7.5 17.7761C7.5 17.5053 7.60853 17.2443 7.80047 17.0524C7.9924 16.8604 8.25248 16.7528 8.52424 16.7519C8.796 16.7528 9.05608 16.8604 9.24801 17.0524C10.0624 17.8667 11.3772 19.1816 12.1827 19.987C12.5683 20.3727 12.5683 20.9987 12.1818 21.3852L9.24806 24.319C9.05523 24.5118 8.7951 24.6194 8.52424 24.6194C8.25338 24.6194 7.99148 24.5118 7.79955 24.3198Z" fill="white"/>
<path fill-rule="evenodd" clip-rule="evenodd" d="M16.9988 14.9709L20.841 18.8131C21.8743 19.8464 21.8743 21.5218 20.841 22.555L19.5477 23.8483L15.7046 20.0052C14.6722 18.9728 14.6722 17.2975 15.7054 16.2642L16.9988 14.9709Z" fill="white"/>
<path fill-rule="evenodd" clip-rule="evenodd" d="M27.9804 7.78666C29.0289 8.83512 29.0297 10.5348 27.9804 11.5841L24.1211 15.4434C23.0879 16.4766 23.0888 18.1512 24.122 19.1844L27.9813 23.0437C29.0298 24.0921 29.0298 25.7926 27.9813 26.8411L27.9804 26.842C26.9319 27.8905 25.2314 27.8905 24.183 26.842L16.5253 19.1844C15.493 18.1521 15.493 16.4766 16.5263 15.4434L24.183 7.78671C25.2323 6.73735 26.932 6.7382 27.9804 7.78666ZM30.3051 13.681C30.497 13.873 30.6047 14.1331 30.6047 14.4039C30.6056 14.6757 30.4971 14.9367 30.3051 15.1286C29.8513 15.5824 29.2684 16.1654 28.819 16.6148C28.4325 17.0013 28.4324 17.6274 28.8181 18.013C29.2683 18.4633 29.8504 19.0454 30.3051 19.5001C30.4971 19.692 30.6047 19.9521 30.6056 20.2239C30.6047 20.4956 30.4971 20.7557 30.3051 20.9476C30.1132 21.1396 29.8531 21.2472 29.5814 21.2481C29.3096 21.2472 29.0495 21.1396 28.8576 20.9477C28.0423 20.1324 26.7274 18.8175 25.9229 18.013C25.5364 17.6265 25.5364 17.0004 25.923 16.6139L28.8567 13.6802C29.0486 13.4882 29.3105 13.3806 29.5813 13.3806C29.8522 13.3806 30.1123 13.4882 30.3042 13.6802L30.3051 13.681Z" fill="white"/>
</svg>
