<svg width="59" height="59" viewBox="0 0 59 59" fill="none" xmlns="http://www.w3.org/2000/svg">
<path d="M24.5 2.88675C27.594 1.10042 31.406 1.10042 34.5 2.88675L50.0477 11.8632C53.1418 13.6496 55.0477 16.9508 55.0477 20.5235V38.4765C55.0477 42.0492 53.1418 45.3504 50.0477 47.1367L34.5 56.1132C31.406 57.8996 27.594 57.8996 24.5 56.1133L8.95225 47.1368C5.85824 45.3504 3.95225 42.0492 3.95225 38.4765V20.5235C3.95225 16.9508 5.85824 13.6496 8.95225 11.8632L24.5 2.88675Z" fill="#FFA6A9"/>
<path d="M40.5 35.375C40.5 34.8611 40.2097 34.3913 39.75 34.1615C39.2903 33.9317 39 33.4619 39 32.948V32C38.9982 30.9375 38.6208 29.9099 37.9346 29.0988C37.4038 28.4715 36.7147 28.0049 35.9451 27.7434C35.5526 27.61 35.25 27.2643 35.25 26.8498V26.75C35.25 26.3358 34.9142 26 34.5 26C34.0858 26 33.75 26.3358 33.75 26.75V26.8498C33.75 27.2643 33.4474 27.61 33.0549 27.7434C32.2853 28.0049 31.5962 28.4715 31.0654 29.0988C30.3792 29.9099 30.0018 30.9375 30 32V32.948C30 33.4619 29.7096 33.9317 29.25 34.1615C28.7904 34.3913 28.5 34.8611 28.5 35.375V35.8594C28.5 37.0416 29.4584 38 30.6406 38H32.25C32.6642 38 33 38.3358 33 38.75C33 39.1642 33.3358 39.5 33.75 39.5H35.25C35.6642 39.5 36 39.1642 36 38.75C36 38.3358 36.3358 38 36.75 38H38.3594C39.5416 38 40.5 37.0416 40.5 35.8594V35.375ZM39 35.8594C39 36.2132 38.7132 36.5 38.3594 36.5H30.6406C30.2868 36.5 30 36.2132 30 35.8594C30 35.6168 30.1371 35.395 30.3541 35.2864L30.75 35.0885C31.2096 34.8587 31.5 34.3889 31.5 33.875V32C31.5 31.2044 31.8161 30.4413 32.3787 29.8787C32.9413 29.3161 33.7044 29 34.5 29C35.2956 29 36.0587 29.3161 36.6213 29.8787C37.1839 30.4413 37.5 31.2044 37.5 32V33.875C37.5 34.3889 37.7904 34.8587 38.25 35.0885L38.6459 35.2864C38.8629 35.395 39 35.6168 39 35.8594Z" fill="white"/>
<path d="M39 21.5C39 21.1022 38.842 20.7206 38.5607 20.4393C38.2794 20.158 37.8978 20 37.5 20H35.25C34.8358 20 34.5 19.6642 34.5 19.25C34.5 18.8358 34.1642 18.5 33.75 18.5C33.3358 18.5 33 18.8358 33 19.25C33 19.6642 32.6642 20 32.25 20H27.75C27.3358 20 27 19.6642 27 19.25C27 18.8358 26.6642 18.5 26.25 18.5C25.8358 18.5 25.5 18.8358 25.5 19.25C25.5 19.6642 25.1642 20 24.75 20H22.5C22.1022 20 21.7206 20.158 21.4393 20.4393C21.158 20.7206 21 21.1022 21 21.5V36.5C21 36.8978 21.158 37.2794 21.4393 37.5607C21.7206 37.842 22.1022 38 22.5 38H24.75C25.1642 38 25.5 37.6642 25.5 37.25C25.5 36.8358 25.1642 36.5 24.75 36.5H23.5C22.9477 36.5 22.5 36.0523 22.5 35.5V22.5C22.5 21.9477 22.9477 21.5 23.5 21.5H24.75C25.1642 21.5 25.5 21.8358 25.5 22.25C25.5 22.6642 25.8358 23 26.25 23C26.6642 23 27 22.6642 27 22.25C27 21.8358 27.3358 21.5 27.75 21.5H32.25C32.6642 21.5 33 21.8358 33 22.25C33 22.6642 33.3358 23 33.75 23C34.1642 23 34.5 22.6642 34.5 22.25C34.5 21.8358 34.8358 21.5 35.25 21.5H36.5C37.0523 21.5 37.5 21.9477 37.5 22.5V25.25C37.5 25.6642 37.8358 26 38.25 26C38.6642 26 39 25.6642 39 25.25V21.5Z" fill="white"/>
</svg>
