<svg width="24" height="24" viewBox="0 0 24 24" fill="none" xmlns="http://www.w3.org/2000/svg">
<path d="M22.5 18.375C22.5 17.8611 22.2097 17.3913 21.75 17.1615C21.2903 16.9317 21 16.4619 21 15.948V15C20.9982 13.9375 20.6208 12.9099 19.9346 12.0988C19.4038 11.4715 18.7147 11.0049 17.9451 10.7434C17.5526 10.61 17.25 10.2643 17.25 9.8498V9.75C17.25 9.33579 16.9142 9 16.5 9C16.0858 9 15.75 9.33579 15.75 9.75V9.8498C15.75 10.2643 15.4474 10.61 15.0549 10.7434C14.2853 11.0049 13.5962 11.4715 13.0654 12.0988C12.3792 12.9099 12.0018 13.9375 12 15V15.948C12 16.4619 11.7096 16.9317 11.25 17.1615C10.7904 17.3913 10.5 17.8611 10.5 18.375V18.8594C10.5 20.0416 11.4584 21 12.6406 21H14.25C14.6642 21 15 21.3358 15 21.75C15 22.1642 15.3358 22.5 15.75 22.5H17.25C17.6642 22.5 18 22.1642 18 21.75C18 21.3358 18.3358 21 18.75 21H20.3594C21.5416 21 22.5 20.0416 22.5 18.8594V18.375ZM21 18.8594C21 19.2132 20.7132 19.5 20.3594 19.5H12.6406C12.2868 19.5 12 19.2132 12 18.8594C12 18.6168 12.1371 18.395 12.3541 18.2864L12.75 18.0885C13.2096 17.8587 13.5 17.3889 13.5 16.875V15C13.5 14.2044 13.8161 13.4413 14.3787 12.8787C14.9413 12.3161 15.7044 12 16.5 12C17.2956 12 18.0587 12.3161 18.6213 12.8787C19.1839 13.4413 19.5 14.2044 19.5 15V16.875C19.5 17.3889 19.7904 17.8587 20.25 18.0885L20.6459 18.2864C20.8629 18.395 21 18.6168 21 18.8594Z" fill="#4D54E4"/>
<path d="M21 4.5C21 4.10218 20.842 3.72064 20.5607 3.43934C20.2794 3.15804 19.8978 3 19.5 3H17.25C16.8358 3 16.5 2.66421 16.5 2.25C16.5 1.83579 16.1642 1.5 15.75 1.5C15.3358 1.5 15 1.83579 15 2.25C15 2.66421 14.6642 3 14.25 3H9.75C9.33579 3 9 2.66421 9 2.25C9 1.83579 8.66421 1.5 8.25 1.5C7.83579 1.5 7.5 1.83579 7.5 2.25C7.5 2.66421 7.16421 3 6.75 3H4.5C4.10218 3 3.72064 3.15804 3.43934 3.43934C3.15804 3.72064 3 4.10218 3 4.5V19.5C3 19.8978 3.15804 20.2794 3.43934 20.5607C3.72064 20.842 4.10218 21 4.5 21H6.75C7.16421 21 7.5 20.6642 7.5 20.25C7.5 19.8358 7.16421 19.5 6.75 19.5H5.5C4.94772 19.5 4.5 19.0523 4.5 18.5V5.5C4.5 4.94772 4.94772 4.5 5.5 4.5H6.75C7.16421 4.5 7.5 4.83579 7.5 5.25C7.5 5.66421 7.83579 6 8.25 6C8.66421 6 9 5.66421 9 5.25C9 4.83579 9.33579 4.5 9.75 4.5H14.25C14.6642 4.5 15 4.83579 15 5.25C15 5.66421 15.3358 6 15.75 6C16.1642 6 16.5 5.66421 16.5 5.25C16.5 4.83579 16.8358 4.5 17.25 4.5H18.5C19.0523 4.5 19.5 4.94772 19.5 5.5V8.25C19.5 8.66421 19.8358 9 20.25 9C20.6642 9 21 8.66421 21 8.25V4.5Z" fill="#4D54E4"/>
</svg>
