<svg width="27" height="14" viewBox="0 0 27 14" fill="none" xmlns="http://www.w3.org/2000/svg">
<path d="M19.9733 
4.52667C19.3174 
3.8707 
18.4277 
3.50218 
17.5 
3.50218C16.5723 
3.50218 
15.6826 
3.8707 
15.0267 
4.52667C14.3707 
5.18264 
14.0022 
6.07232 
14.0022 
7C14.0022 
7.92768 
14.3707 
8.81736 
15.0267 
9.47333C15.3515 
9.79813 
15.7371 
10.0558 
16.1614 
10.2316C16.5858 
10.4073 
17.0407 
10.4978 
17.5 
10.4978C17.9593 
10.4978 
18.4142 
10.4073 
18.8386 
10.2316C19.2629 
10.0558 
19.6485 
9.79813 
19.9733 
9.47333C20.2981 9.14853 
20.5558 
8.76293 
20.7316 
8.33856C20.9073 
7.91418 
20.9978 
7.45934 
20.9978 
7C20.9978 
6.54066 
20.9073 
6.08582 
20.7316 
5.66144C20.5558 
5.23707 
20.2981 
4.85147 
19.9733 
4.52667ZM8.16667 
0V14H26.8333V0H8.16667ZM24.5 
9.33333C23.8817 
9.33333 
23.2867 
9.57833 
22.855 
10.0217C22.4117 
10.4533 
22.1667 
11.0483 
22.1667 
11.6667H12.8333C12.8333 
11.0483 
12.5883 
10.4533 
12.145 
10.0217C11.7133 9.57833 
11.1183 9.33333 
10.5 
9.33333V4.66667C11.1183 
4.66667 
11.7133 
4.42167 
12.145 
3.97833C12.5883 
3.54667 
12.8333 
2.95167 
12.8333 
2.33333H22.1667C22.1667 
2.95167 
22.4117 
3.54667 
22.855 
3.97833C23.2867 
4.42167 23.8817 
4.66667 24.5 
4.66667V9.33333ZM5.83333 
2.33333H3.5C2.85833 
2.33333 
2.33333 
1.80833 
2.33333 
1.16667C2.33333 
0.525 
2.85833 
0 
3.5 
0H5.83333V2.33333ZM5.83333 
8.16667H2.33333C1.69167 
8.16667 
1.16667 
7.64167 
1.16667 
7C1.16667 
6.35833 
1.69167 
5.83333 
2.33333 
5.83333H5.83333V8.16667ZM5.83333 
14H1.16667C0.522667 14 0 13.475 0 12.8333C0 
12.1917 0.522667 
11.6667 
1.16667 
11.6667H5.83333V14Z" fill="white"/>
</svg>
