<svg width="59" height="59" viewBox="0 0 59 59" fill="none" xmlns="http://www.w3.org/2000/svg">
<path d="M24.5 2.88675C27.594 1.10042 31.406 1.10042 34.5 2.88675L50.0477 11.8632C53.1418 13.6496 55.0477 16.9508 55.0477 20.5235V38.4765C55.0477 42.0492 53.1418 45.3504 50.0477 47.1367L34.5 56.1132C31.406 57.8996 27.594 57.8996 24.5 56.1133L8.95225 47.1368C5.85824 45.3504 3.95225 42.0492 3.95225 38.4765V20.5235C3.95225 16.9508 5.85824 13.6496 8.95225 11.8632L24.5 2.88675Z" fill="#7587E0"/>
<path d="M35 22C35.7956 22 36.5587 22.3161 37.1213 22.8787C37.6839 23.4413 38 24.2044 38 25V35C38 35.7956 37.6839 36.5587 37.1213 37.1213C36.5587 37.6839 35.7956 38 35 38H21C20.2044 38 19.4413 37.6839 18.8787 37.1213C18.3161 36.5587 18 35.7956 18 35V25C18 24.2044 18.3161 23.4413 18.8787 22.8787C19.4413 22.3161 20.2044 22 21 22H35ZM36 28H20V35C20 35.2449 20.09 35.4813 20.2527 35.6644C20.4155 35.8474 20.6397 35.9643 20.883 35.993L21 36H35C35.2449 36 35.4813 35.91 35.6644 35.7473C35.8474 35.5845 35.9643 35.3603 35.993 35.117L36 35V28ZM33 31C33.2549 31.0003 33.5 31.0979 33.6854 31.2728C33.8707 31.4478 33.9822 31.687 33.9972 31.9414C34.0121 32.1958 33.9293 32.4464 33.7657 32.6418C33.6021 32.8373 33.3701 32.9629 33.117 32.993L33 33H30C29.7451 32.9997 29.5 32.9021 29.3146 32.7272C29.1293 32.5522 29.0178 32.313 29.0028 32.0586C28.9879 31.8042 29.0707 31.5536 29.2343 31.3582C29.3979 31.1627 29.6299 31.0371 29.883 31.007L30 31H33ZM35 24H21C20.7348 24 20.4804 24.1054 20.2929 24.2929C20.1054 24.4804 20 24.7348 20 25V26H36V25C36 24.7348 35.8946 24.4804 35.7071 24.2929C35.5196 24.1054 35.2652 24 35 24Z" fill="white"/>
<path d="M38 31H36V34C36.4 36 35.1667 36.1667 34.5 36H29V38H35.5C37.5 37.6 38 35.8333 38 35V31Z" fill="#7587E0"/>
<path d="M39.1913 32.8774C39.1304 32.8832 39.0693 32.8985 39.0107 32.9226C38.7769 33.0195 38.6249 33.2469 38.6249 33.5V34.75H29.2499V36H38.6249V37.25C38.6249 37.5025 38.7769 37.7305 39.0107 37.8274C39.0882 37.8593 39.1693 37.875 39.2499 37.875C39.4124 37.875 39.5724 37.8113 39.6918 37.6919L41.5668 35.8169C41.8112 35.5725 41.8112 35.1769 41.5668 34.9331L39.6918 33.0581C39.5578 32.924 39.374 32.8602 39.1913 32.8774ZM31.8085 39.1274C31.6259 39.1102 31.4421 39.174 31.308 39.3081L29.433 41.1831C29.1887 41.4269 29.1887 41.8225 29.433 42.0669L31.308 43.9419C31.4274 44.0613 31.5874 44.125 31.7499 44.125C31.8306 44.125 31.9117 44.1093 31.9892 44.0774C32.2229 43.9805 32.3749 43.7525 32.3749 43.5V42.25H41.7499V41H32.3749V39.75C32.3749 39.4975 32.2229 39.2695 31.9892 39.1726C31.9306 39.1485 31.8694 39.1332 31.8085 39.1274Z" fill="white"/>
</svg>
