<svg width="27" height="28" viewBox="0 0 27 28" fill="none" xmlns="http://www.w3.org/2000/svg">
<path d="M19 4C19.7956 4 20.5587 4.31607 21.1213 4.87868C21.6839 5.44129 22 6.20435 22 7V17C22 17.7956 21.6839 18.5587 21.1213 19.1213C20.5587 19.6839 19.7956 20 19 20H5C4.20435 20 3.44129 19.6839 2.87868 19.1213C2.31607 18.5587 2 17.7956 2 17V7C2 6.20435 2.31607 5.44129 2.87868 4.87868C3.44129 4.31607 4.20435 4 5 4H19ZM20 10H4V17C4.00003 17.2449 4.08996 17.4813 4.25272 17.6644C4.41547 17.8474 4.63975 17.9643 4.883 17.993L5 18H19C19.2449 18 19.4813 17.91 19.6644 17.7473C19.8474 17.5845 19.9643 17.3603 19.993 17.117L20 17V10ZM17 13C17.2549 13.0003 17.5 13.0979 17.6854 13.2728C17.8707 13.4478 17.9822 13.687 17.9972 13.9414C18.0121 14.1958 17.9293 14.4464 17.7657 14.6418C17.6021 14.8373 17.3701 14.9629 17.117 14.993L17 15H14C13.7451 14.9997 13.5 14.9021 13.3146 14.7272C13.1293 14.5522 13.0178 14.313 13.0028 14.0586C12.9879 13.8042 13.0707 13.5536 13.2343 13.3582C13.3979 13.1627 13.6299 13.0371 13.883 13.007L14 13H17ZM19 6H5C4.73478 6 4.48043 6.10536 4.29289 6.29289C4.10536 6.48043 4 6.73478 4 7V8H20V7C20 6.73478 19.8946 6.48043 19.7071 6.29289C19.5196 6.10536 19.2652 6 19 6Z" fill="white"/>
<path d="M22 13H20V16C20.4 18 19.1667 18.1667 18.5 18H13V20H19.5C21.5 19.6 22 17.8333 22 17V13Z" fill="white"/>
<rect width="15" height="15" transform="translate(12 13)" fill="#4D54E4"/>
<path d="M23.1915 14.8775C23.1306 14.8833 23.0694 14.8986 23.0108 14.9227C22.777 15.0196 22.6251 15.247 22.6251 15.5001V16.7501H13.2501V18.0001H22.6251V19.2501C22.6251 19.5026 22.777 19.7306 23.0108 19.8275C23.0883 19.8594 23.1694 19.8751 23.2501 19.8751C23.4126 19.8751 23.5726 19.8114 23.6919 19.692L25.5669 17.817C25.8113 17.5726 25.8113 17.1769 25.5669 16.9332L23.6919 15.0582C23.5579 14.9241 23.3741 14.8602 23.1915 14.8775ZM15.8086 21.1275C15.626 21.1102 15.4422 21.1741 15.3082 21.3082L13.4332 23.1832C13.1888 23.4269 13.1888 23.8226 13.4332 24.067L15.3082 25.942C15.4275 26.0614 15.5876 26.1251 15.7501 26.1251C15.8307 26.1251 15.9118 26.1094 15.9893 26.0775C16.2231 25.9806 16.3751 25.7526 16.3751 25.5001V24.2501H25.7501V23.0001H16.3751V21.7501C16.3751 21.4976 16.2231 21.2696 15.9893 21.1727C15.9307 21.1486 15.8695 21.1333 15.8086 21.1275Z" fill="white"/>
</svg>
