<svg width="24" height="24" viewBox="0 0 24 24" fill="none" xmlns="http://www.w3.org/2000/svg">
<path fill-rule="evenodd" clip-rule="evenodd" d="M2.37896 23.2133C1.33049 22.1649 1.32964 20.4652 2.379 19.4159L6.23829 15.5566C7.27151 14.5234 7.27059 12.8488 6.23737 11.8156L2.37808 7.95632C1.32962 6.90786 1.32962 5.20737 2.37808 4.15891L2.379 4.15799C3.42746 3.10953 5.12795 3.10953 6.17641 4.15799L13.834 11.8156C14.8664 12.8479 14.8663 14.5234 13.8331 15.5566L6.17641 23.2133C5.12705 24.2626 3.42742 24.2618 2.37896 23.2133ZM0.799547 17.3198C0.607612 17.1279 0.500919 16.8669 0.500919 16.5961C0.500023 16.3243 0.607635 16.0642 0.800466 15.8714C1.25429 15.4175 1.83725 14.8346 2.28659 14.3852C2.67315 13.9987 2.67311 13.3726 2.28655 12.9861C1.83721 12.5367 1.25425 11.9538 0.800423 11.5C0.608488 11.308 0.500897 11.0479 0.5 10.7761C0.5 10.5053 0.608532 10.2443 0.800467 10.0524C0.992401 9.86043 1.25248 9.75279 1.52424 9.7519C1.796 9.75279 2.05608 9.86043 2.24801 10.0524C3.06239 10.8667 4.37725 12.1816 5.18265 12.987C5.56831 13.3727 5.56834 13.9987 5.18178 14.3852L2.24806 17.319C2.05523 17.5118 1.7951 17.6194 1.52424 17.6194C1.25338 17.6194 0.991481 17.5118 0.799547 17.3198Z" fill="white"/>
<path fill-rule="evenodd" clip-rule="evenodd" d="M9.99854 7.97089L13.8408 11.8131C14.874 12.8464 14.874 14.5218 13.8408 15.555L12.5475 16.8483L8.70431 13.0052C7.67199 11.9728 7.67197 10.2975 8.70519 9.26424L9.99854 7.97089Z" fill="white"/>
<path fill-rule="evenodd" clip-rule="evenodd" d="M20.9802 0.786662C22.0286 1.83512 22.0295 3.53476 20.9801 4.58412L17.1208 8.44341C16.0876 9.47663 16.0885 11.1512 17.1218 12.1844L20.981 16.0437C22.0295 17.0921 22.0295 18.7926 20.981 19.8411L20.9801 19.842C19.9317 20.8905 18.2312 20.8905 17.1827 19.842L9.52509 12.1844C8.49277 11.1521 8.4928 9.47663 9.52601 8.44341L17.1827 0.786706C18.2321 -0.262654 19.9317 -0.261801 20.9802 0.786662ZM23.3049 6.68103C23.4968 6.87297 23.6044 7.13307 23.6044 7.40393C23.6053 7.67569 23.4968 7.93669 23.3049 8.12862C22.8511 8.58245 22.2681 9.16541 21.8188 9.61475C21.4322 10.0013 21.4322 10.6274 21.8179 11.013C22.2681 11.4633 22.8502 12.0454 23.3049 12.5001C23.4968 12.692 23.6045 12.9521 23.6054 13.2239C23.6045 13.4956 23.4968 13.7557 23.3049 13.9476C23.113 14.1396 22.8529 14.2472 22.5811 14.2481C22.3094 14.2472 22.0492 14.1396 21.8573 13.9477C21.042 13.1324 19.7272 11.8175 18.9227 11.013C18.5361 10.6265 18.5362 10.0004 18.9227 9.61388L21.8564 6.68016C22.0484 6.48822 22.3102 6.38057 22.5811 6.38057C22.8519 6.38057 23.112 6.48822 23.304 6.68016L23.3049 6.68103Z" fill="white"/>
</svg>
