<svg width="30" height="35" viewBox="0 0 30 35" fill="none" xmlns="http://www.w3.org/2000/svg">
<path d="M15.0001 0C13.8148 0 12.8572 0.957589 12.8572 2.14286V3.42857C7.96881 4.41964 4.28578 8.74554 4.28578 13.9286V15.1875C4.28578 18.3348 3.12729 21.375 1.03801 23.7321L0.542472 24.2879C-0.0200283 24.9174 -0.153957 25.8214 0.187561 26.5915C0.529079 27.3616 1.29917 27.8571 2.14292 27.8571H27.8572C28.701 27.8571 29.4644 27.3616 29.8126 26.5915C30.1608 25.8214 30.0202 24.9174 29.4577 24.2879L28.9621 23.7321C26.8728 21.375 25.7143 18.3415 25.7143 15.1875V13.9286C25.7143 8.74554 22.0313 4.41964 17.1429 3.42857V2.14286C17.1429 0.957589 16.1853 0 15.0001 0ZM18.0335 33.0335C18.8371 32.2299 19.2858 31.1384 19.2858 30H10.7143C10.7143 31.1384 11.163 32.2299 11.9666 33.0335C12.7702 33.8371 13.8617 34.2857 15.0001 34.2857C16.1385 34.2857 17.23 33.8371 18.0335 33.0335Z" fill="#4D54E4"/>
</svg>
