<svg width="24" height="22" viewBox="0 0 24 22" fill="none" xmlns="http://www.w3.org/2000/svg">
<g clip-path="url(#clip0_294_739)">
<path d="M22.5527 12.7324C22.0859 15.2129 20.7637 17.3926 18.9063 18.9531C17.0371 20.5234 14.6309 21.4688 12.0059 21.4688C9.53906 21.4688 7.26367 20.6348 5.44922 19.2324C3.59375 17.8008 2.22266 15.7754 1.61523 13.4395L2.95508 13.0918C3.48242 15.125 4.67773 16.8887 6.29297 18.1367C7.87109 19.3555 9.85156 20.0801 12.0039 20.0801C14.2949 20.0801 16.3926 19.2578 18.0156 17.8945C19.5684 16.5898 20.6914 14.7871 21.1367 12.7305H19.7051L21.8516 10.1152L23.998 12.7305H22.5527V12.7324ZM11.9707 13.4902V11.0391C11.1074 10.8203 10.4766 10.4902 10.0762 10.0488C9.67383 9.60547 9.4707 9.06836 9.4707 8.43555C9.4707 7.79492 9.69922 7.25586 10.1543 6.82227C10.6094 6.38672 11.2148 6.13672 11.9707 6.07031V5.49414H12.9355V6.07031C13.6426 6.14453 14.2031 6.35742 14.623 6.70703C15.0391 7.05664 15.3066 7.52539 15.4219 8.11133L13.7363 8.30273C13.6328 7.8418 13.3652 7.5293 12.9355 7.36523V9.65234C14.002 9.9043 14.7285 10.2344 15.1133 10.6367C15.5 11.041 15.6934 11.5586 15.6934 12.1914C15.6934 12.8984 15.4512 13.4922 14.9648 13.9766C14.4785 14.4609 13.8027 14.7617 12.9355 14.8809V15.9746H11.9707V14.8945C11.209 14.8125 10.5918 14.5645 10.1133 14.1465C9.63477 13.7285 9.33203 13.1367 9.19922 12.373L10.9238 12.1934C10.9941 12.5059 11.127 12.7734 11.3223 13C11.5176 13.2266 11.7324 13.3887 11.9707 13.4902ZM11.9707 7.34375C11.7109 7.42578 11.5059 7.56055 11.3555 7.74805C11.2031 7.93555 11.1289 8.14258 11.1289 8.36914C11.1289 8.57617 11.1973 8.76758 11.3359 8.94531C11.4746 9.12109 11.6875 9.26562 11.9727 9.37305V7.34375H11.9707ZM12.9355 13.5879C13.2676 13.5234 13.541 13.3828 13.748 13.168C13.959 12.9512 14.0625 12.6973 14.0625 12.4023C14.0625 12.1426 13.9746 11.916 13.7969 11.7285C13.623 11.5391 13.3359 11.3945 12.9336 11.293V13.5879H12.9355ZM1.45703 8.73828C1.91992 6.2793 3.22266 4.11719 5.05273 2.55859C6.92774 0.962891 9.35547 0 12.0039 0C14.334 0 16.4902 0.742188 18.25 2.00391C20.0566 3.29883 21.4434 5.14062 22.1719 7.28906L21.5156 7.51172L20.8594 7.73437C20.8418 7.67969 20.8223 7.625 20.8027 7.57227C20.1563 5.77344 18.9707 4.23047 17.4434 3.13477C15.9121 2.03711 14.0352 1.39062 12.0059 1.39062C9.69336 1.39062 7.57813 2.22656 5.94922 3.61328C4.41797 4.91602 3.31445 6.70313 2.87109 8.73828H4.29492L2.14648 11.3535L0 8.73828H1.45703Z" fill="white"/>
</g>
<defs>
<clipPath id="clip0_294_739">
<rect width="24" height="21.4707" fill="white"/>
</clipPath>
</defs>
</svg>
