<svg width="59" height="59" viewBox="0 0 59 59" fill="none" xmlns="http://www.w3.org/2000/svg">
<path d="M24.5 2.88675C27.594 1.10042 31.406 1.10042 34.5 2.88675L50.0477 11.8632C53.1418 13.6496 55.0477 16.9508 55.0477 20.5235V38.4765C55.0477 42.0492 53.1418 45.3504 50.0477 47.1367L34.5 56.1132C31.406 57.8996 27.594 57.8996 24.5 56.1133L8.95225 47.1368C5.85824 45.3504 3.95225 42.0492 3.95225 38.4765V20.5235C3.95225 16.9508 5.85824 13.6496 8.95225 11.8632L24.5 2.88675Z" fill="#B38DED"/>
<g clip-path="url(#clip0_133_647)">
<path d="M39.5527 30.7324C39.0859 33.2129 37.7637 35.3926 35.9063 36.9531C34.0371 38.5234 31.6309 39.4688 29.0059 39.4688C26.5391 39.4688 24.2637 38.6348 22.4492 37.2324C20.5938 35.8008 19.2227 33.7754 18.6152 31.4395L19.9551 31.0918C20.4824 33.125 21.6777 34.8887 23.293 36.1367C24.8711 37.3555 26.8516 38.0801 29.0039 38.0801C31.2949 38.0801 33.3926 37.2578 35.0156 35.8945C36.5684 34.5898 37.6914 32.7871 38.1367 30.7305H36.7051L38.8516 28.1152L40.998 30.7305H39.5527V30.7324ZM28.9707 31.4902V29.0391C28.1074 28.8203 27.4766 28.4902 27.0762 28.0488C26.6738 27.6055 26.4707 27.0684 26.4707 26.4355C26.4707 25.7949 26.6992 25.2559 27.1543 24.8223C27.6094 24.3867 28.2148 24.1367 28.9707 24.0703V23.4941H29.9355V24.0703C30.6426 24.1445 31.2031 24.3574 31.623 24.707C32.0391 25.0566 32.3066 25.5254 32.4219 26.1113L30.7363 26.3027C30.6328 25.8418 30.3652 25.5293 29.9355 25.3652V27.6523C31.002 27.9043 31.7285 28.2344 32.1133 28.6367C32.5 29.041 32.6934 29.5586 32.6934 30.1914C32.6934 30.8984 32.4512 31.4922 31.9648 31.9766C31.4785 32.4609 30.8027 32.7617 29.9355 32.8809V33.9746H28.9707V32.8945C28.209 32.8125 27.5918 32.5645 27.1133 32.1465C26.6348 31.7285 26.332 31.1367 26.1992 30.373L27.9238 30.1934C27.9941 30.5059 28.127 30.7734 28.3223 31C28.5176 31.2266 28.7324 31.3887 28.9707 31.4902ZM28.9707 25.3437C28.7109 25.4258 28.5059 25.5605 28.3555 25.748C28.2031 25.9355 28.1289 26.1426 28.1289 26.3691C28.1289 26.5762 28.1973 26.7676 28.3359 26.9453C28.4746 27.1211 28.6875 27.2656 28.9727 27.373V25.3437H28.9707ZM29.9355 31.5879C30.2676 31.5234 30.541 31.3828 30.748 31.168C30.959 30.9512 31.0625 30.6973 31.0625 30.4023C31.0625 30.1426 30.9746 29.916 30.7969 29.7285C30.623 29.5391 30.3359 29.3945 29.9336 29.293V31.5879H29.9355ZM18.457 26.7383C18.9199 24.2793 20.2227 22.1172 22.0527 20.5586C23.9277 18.9629 26.3555 18 29.0039 18C31.334 18 33.4902 18.7422 35.25 20.0039C37.0566 21.2988 38.4434 23.1406 39.1719 25.2891L38.5156 25.5117L37.8594 25.7344C37.8418 25.6797 37.8223 25.625 37.8027 25.5723C37.1563 23.7734 35.9707 22.2305 34.4434 21.1348C32.9121 20.0371 31.0352 19.3906 29.0059 19.3906C26.6934 19.3906 24.5781 20.2266 22.9492 21.6133C21.418 22.916 20.3145 24.7031 19.8711 26.7383H21.2949L19.1465 29.3535L17 26.7383H18.457Z" fill="white"/>
</g>
<defs>
<clipPath id="clip0_133_647">
<rect width="24" height="21.4707" fill="white" transform="translate(17 18)"/>
</clipPath>
</defs>
</svg>
