<svg width="59" height="59" viewBox="0 0 59 59" fill="none" xmlns="http://www.w3.org/2000/svg">
<path d="M24.5 2.88675C27.594 1.10042 31.406 1.10042 34.5 2.88675L50.0477 11.8632C53.1418 13.6496 55.0477 16.9508 55.0477 20.5235V38.4765C55.0477 42.0492 53.1418 45.3504 50.0477 47.1367L34.5 56.1132C31.406 57.8996 27.594 57.8996 24.5 56.1133L8.95225 47.1368C5.85824 45.3504 3.95225 42.0492 3.95225 38.4765V20.5235C3.95225 16.9508 5.85824 13.6496 8.95225 11.8632L24.5 2.88675Z" fill="#FFA6A9"/>
<g clip-path="url(#clip0_39_238)">
<path d="M29.67 20.217L38.17 24.967C38.4195 25.0916 38.6294 25.2832 38.776 25.5204C38.9226 25.7577 39.0002 26.0311 39 26.31V27.75C39 28.44 38.44 29 37.75 29H37V37H38C38.2652 37 38.5196 37.1053 38.7071 37.2929C38.8946 37.4804 39 37.7348 39 38C39 38.2652 38.8946 38.5196 38.7071 38.7071C38.5196 38.8946 38.2652 39 38 39H20C19.7348 39 19.4804 38.8946 19.2929 38.7071C19.1054 38.5196 19 38.2652 19 38C19 37.7348 19.1054 37.4804 19.2929 37.2929C19.4804 37.1053 19.7348 37 20 37H21V29H20.25C19.56 29 19 28.44 19 27.75V26.31C19 25.788 19.27 25.308 19.706 25.036L28.329 20.217C28.5373 20.1128 28.7671 20.0585 29 20.0585C29.2329 20.0585 29.4627 20.1128 29.671 20.217H29.67ZM35 29H23V37H26V31H28V37H30V31H32V37H35V29ZM29 22.118L21 26.618V27H37V26.618L29 22.118ZM29 24C29.2652 24 29.5196 24.1053 29.7071 24.2929C29.8946 24.4804 30 24.7348 30 25C30 25.2652 29.8946 25.5196 29.7071 25.7071C29.5196 25.8946 29.2652 26 29 26C28.7348 26 28.4804 25.8946 28.2929 25.7071C28.1054 25.5196 28 25.2652 28 25C28 24.7348 28.1054 24.4804 28.2929 24.2929C28.4804 24.1053 28.7348 24 29 24Z" fill="white"/>
</g>
<defs>
<clipPath id="clip0_39_238">
<rect width="24" height="24" fill="white" transform="translate(17 18)"/>
</clipPath>
</defs>
</svg>
