<svg width="59" height="59" viewBox="0 0 59 59" fill="none" xmlns="http://www.w3.org/2000/svg">
<path d="M24.5 2.88675C27.594 1.10042 31.406 1.10042 34.5 2.88675L50.0477 11.8632C53.1418 13.6496 55.0477 16.9508 55.0477 20.5235V38.4765C55.0477 42.0492 53.1418 45.3504 50.0477 47.1367L34.5 56.1132C31.406 57.8996 27.594 57.8996 24.5 56.1133L8.95225 47.1368C5.85824 45.3504 3.95225 42.0492 3.95225 38.4765V20.5235C3.95225 16.9508 5.85824 13.6496 8.95225 11.8632L24.5 2.88675Z" fill="#7587E0"/>
<path fill-rule="evenodd" clip-rule="evenodd" d="M20.379 40.2133C19.3305 39.1649 19.3296 37.4652 20.379 36.4159L24.2383 32.5566C25.2715 31.5234 25.2706 29.8488 24.2374 28.8156L20.3781 24.9563C19.3296 23.9079 19.3296 22.2074 20.3781 21.1589L20.379 21.158C21.4275 20.1095 23.1279 20.1095 24.1764 21.158L31.834 28.8156C32.8664 29.8479 32.8663 31.5234 31.8331 32.5566L24.1764 40.2133C23.1271 41.2626 21.4274 41.2618 20.379 40.2133ZM18.7995 34.3198C18.6076 34.1279 18.5009 33.8669 18.5009 33.5961C18.5 33.3243 18.6076 33.0642 18.8005 32.8714C19.2543 32.4175 19.8373 31.8346 20.2866 31.3852C20.6732 30.9987 20.6731 30.3726 20.2866 29.9861C19.8372 29.5367 19.2542 28.9538 18.8004 28.5C18.6085 28.308 18.5009 28.0479 18.5 27.7761C18.5 27.5053 18.6085 27.2443 18.8005 27.0524C18.9924 26.8604 19.2525 26.7528 19.5242 26.7519C19.796 26.7528 20.0561 26.8604 20.248 27.0524C21.0624 27.8667 22.3772 29.1816 23.1827 29.987C23.5683 30.3727 23.5683 30.9987 23.1818 31.3852L20.2481 34.319C20.0552 34.5118 19.7951 34.6194 19.5242 34.6194C19.2534 34.6194 18.9915 34.5118 18.7995 34.3198Z" fill="white"/>
<path fill-rule="evenodd" clip-rule="evenodd" d="M27.9987 24.9709L31.841 28.8131C32.8742 29.8464 32.8742 31.5218 31.841 32.555L30.5477 33.8483L26.7045 30.0052C25.6722 28.9728 25.6722 27.2975 26.7054 26.2642L27.9987 24.9709Z" fill="white"/>
<path fill-rule="evenodd" clip-rule="evenodd" d="M38.9804 17.7867C40.0289 18.8351 40.0297 20.5348 38.9804 21.5841L35.1211 25.4434C34.0879 26.4766 34.0888 28.1512 35.122 29.1844L38.9813 33.0437C40.0297 34.0921 40.0297 35.7926 38.9813 36.8411L38.9804 36.842C37.9319 37.8905 36.2314 37.8905 35.1829 36.842L27.5253 29.1844C26.493 28.1521 26.493 26.4766 27.5262 25.4434L35.1829 17.7867C36.2323 16.7373 37.9319 16.7382 38.9804 17.7867ZM41.3051 23.681C41.497 23.873 41.6047 24.1331 41.6047 24.4039C41.6056 24.6757 41.4971 24.9367 41.3051 25.1286C40.8513 25.5824 40.2683 26.1654 39.819 26.6148C39.4324 27.0013 39.4324 27.6274 39.8181 28.013C40.2683 28.4633 40.8504 29.0454 41.3051 29.5001C41.4971 29.692 41.6047 29.9521 41.6056 30.2239C41.6047 30.4956 41.4971 30.7557 41.3051 30.9476C41.1132 31.1396 40.8531 31.2472 40.5814 31.2481C40.3096 31.2472 40.0495 31.1396 39.8575 30.9477C39.0423 30.1324 37.7274 28.8175 36.9229 28.013C36.5363 27.6265 36.5364 27.0004 36.9229 26.6139L39.8567 23.6802C40.0486 23.4882 40.3105 23.3806 40.5813 23.3806C40.8522 23.3806 41.1123 23.4882 41.3042 23.6802L41.3051 23.681Z" fill="white"/>
</svg>
