<svg width="59" height="59" viewBox="0 0 59 59" fill="none" xmlns="http://www.w3.org/2000/svg">
<path d="M24.5 2.88675C27.594 1.10042 31.406 1.10042 34.5 2.88675L50.0477 11.8632C53.1418 13.6496 55.0477 16.9508 55.0477 20.5235V38.4765C55.0477 42.0492 53.1418 45.3504 50.0477 47.1368L34.5 56.1132C31.406 57.8996 27.594 57.8996 24.5 56.1132L8.95225 47.1368C5.85824 45.3504 3.95225 42.0492 3.95225 38.4765V20.5235C3.95225 16.9508 5.85824 13.6496 8.95225 11.8632L24.5 2.88675Z" fill="#7587E0"/>
<path fill-rule="evenodd" clip-rule="evenodd" d="M36.0118 18.5979C35.1714 18.1847 34.1757 18.0931 33.2215 18.4204C32.2674 18.7477 31.5352 19.43 31.1219 20.2704C30.7087 21.1108 30.6171 22.1065 30.9444 23.0607C31.2717 24.0148 31.954 24.747 32.7944 25.1603C33.6348 25.5735 34.6305 25.6651 35.5847 25.3378C36.5388 25.0105 37.271 24.3282 37.6843 23.4878C38.0948 22.6474 38.1891 21.6517 37.8618 20.6975C37.5345 19.7434 36.8522 19.0112 36.0118 18.5979ZM23.7414 19.0722L23.8079 19.4716C24.0742 19.455 24.31 19.4716 24.5124 19.5215C24.7149 19.5715 24.898 19.6685 25.0671 19.81C25.1975 19.9182 25.3057 20.0319 25.3889 20.1539C25.4721 20.276 25.522 20.3924 25.5387 20.5034C25.5581 20.6254 25.5303 20.7419 25.4554 20.8445C25.3806 20.9499 25.2779 21.011 25.1504 21.0332C24.909 21.072 24.7288 20.9666 24.6178 20.7197C24.4847 20.4257 24.2573 20.2538 23.93 20.2038L24.1824 21.7376C24.5013 21.7709 24.7565 21.807 24.9479 21.8458C25.1393 21.8846 25.3195 21.9568 25.4832 22.0649C25.6579 22.1759 25.8022 22.3173 25.9159 22.4921C26.0296 22.6668 26.1045 22.8665 26.1405 23.0884C26.1877 23.3685 26.1655 23.6403 26.0712 23.9066C25.9797 24.1729 25.8188 24.4031 25.5886 24.6028C25.3584 24.7997 25.0699 24.9412 24.7204 25.0271L24.8702 25.9452C24.8952 26.0894 24.898 26.1976 24.8785 26.2697C24.8619 26.3418 24.8064 26.3834 24.7093 26.4001C24.6206 26.4139 24.554 26.3973 24.5097 26.3502C24.4653 26.303 24.4348 26.2198 24.4153 26.1061L24.2517 25.1103C23.9605 25.127 23.697 25.0993 23.464 25.0327C23.231 24.9661 23.0313 24.8663 22.8621 24.7359C22.6929 24.6056 22.5598 24.4613 22.4655 24.3088C22.3684 24.1535 22.3074 23.9954 22.2824 23.8373C22.263 23.7208 22.2908 23.6071 22.3684 23.4961C22.4461 23.3879 22.5515 23.3214 22.6874 23.2964C22.7983 23.277 22.8954 23.2881 22.9814 23.3269C23.0646 23.3658 23.1312 23.4295 23.1755 23.5183C23.2754 23.7097 23.3586 23.8539 23.4252 23.9538C23.4917 24.0536 23.5833 24.1396 23.697 24.2089C23.8107 24.281 23.9549 24.3282 24.1269 24.3476L23.844 22.6335C23.5001 22.5947 23.2088 22.5392 22.9675 22.4643C22.729 22.3894 22.521 22.2591 22.3518 22.076C22.1798 21.893 22.0689 21.6378 22.0134 21.3133C21.9441 20.8917 22.0217 20.52 22.2464 20.2066C22.4711 19.8932 22.8344 19.6713 23.3364 19.5437L23.2726 19.1526C23.2393 18.9474 23.3004 18.8309 23.4557 18.8059C23.6138 18.7838 23.7081 18.8725 23.7414 19.0722ZM23.6887 21.6794L23.4557 20.2676C23.2588 20.3619 23.1118 20.4701 23.0119 20.5894C22.9121 20.7086 22.8788 20.8723 22.9148 21.0748C22.9453 21.2689 23.0258 21.4076 23.1506 21.488C23.2754 21.5712 23.4529 21.635 23.6887 21.6794ZM24.3377 22.6973L24.604 24.3116C24.8425 24.2228 25.02 24.0897 25.1309 23.9177C25.2419 23.7457 25.2807 23.5599 25.2474 23.3602C25.2114 23.1466 25.1198 22.9913 24.9673 22.897C24.8147 22.8027 24.604 22.7361 24.3377 22.6973ZM21.7028 14.848C21.3616 14.2073 21.0399 13.5527 20.7514 12.8843C21.2867 12.0605 23.8246 11.7416 24.6511 12.2325L24.2406 13.9383C24.5235 13.403 24.6123 13.1894 24.7842 12.8898C24.8841 12.9342 24.9812 12.9869 25.0727 13.0452C25.2918 13.1866 25.4943 13.3503 25.5719 13.611C25.6219 13.7802 25.6025 13.9632 25.4776 14.1685L24.2323 16.2182C24.0298 16.2182 23.8273 16.2015 23.6276 16.1655C23.6803 15.9464 23.7497 15.7023 23.8024 15.4804L23.342 16.1793C22.7373 16.1516 22.2797 16.3042 21.8803 16.6065L20.0081 14.9867C19.8971 14.8896 19.8361 14.7842 19.8195 14.6733C19.7474 14.224 20.3576 13.7219 20.6876 13.5139L21.7028 14.848ZM24.2656 17.9073L23.7303 16.5621C25.0782 16.5898 27.6078 18.903 28.4842 20.0014C28.9308 20.5616 29.3468 21.1912 29.7185 21.9096C30.1872 22.9442 30.312 23.9898 29.9459 24.8274C32.3201 25.2185 33.5211 26.5637 34.4697 27.6343C34.833 28.042 35.2823 28.9435 35.9064 28.8298C37.0796 28.619 40.5855 28.4248 40.9294 28.3028L42 31.387C40.9821 31.7004 34.8108 32.6823 34.1951 32.4826C33.1356 32.0749 32.506 31.5396 31.9596 30.9904L29.9293 34.0275C30.5506 34.4019 31.1718 34.6904 31.7599 34.965C33.8234 35.9274 35.5209 36.7207 35.8898 39.9991C35.923 40.2875 35.9314 40.5732 35.9258 40.8644C35.923 41.1584 35.9064 41.4247 35.8925 41.7021V41.7104C35.887 41.8019 35.8814 41.899 35.8731 42.0904L35.7816 44.839L31.6822 44.8501C31.7571 42.4953 31.7432 43.8294 31.7432 41.4829C31.7599 41.1695 31.7765 40.8783 31.7599 40.6148C31.746 40.3818 31.7044 40.1655 31.6129 39.9658L31.5851 39.902C31.4853 39.6856 31.3965 39.4859 31.3272 39.4527C31.0054 39.3029 30.4812 39.1115 29.8766 38.9146C29.2719 38.7149 28.6118 38.5152 28.0099 38.3432C26.931 41.8657 26.9255 42.7782 25.2252 46.0538L20.9123 46.0788C22.5654 42.0155 22.7789 40.5011 24.052 36.2991C22.2519 33.7335 25.3029 32.0499 25.9436 28.7355C25.4 28.6855 24.0686 28.6606 22.9204 28.9934C21.4892 29.4067 20.4325 30.1417 19.556 31.301L18 28.4137C18.0943 28.4026 18.2746 28.0726 20.0053 27.1184C19.6364 26.9631 19.3258 26.7246 19.1094 26.3668C17.8031 24.1756 19.0318 21.1108 20.291 19.1499C20.4574 18.8919 20.6322 18.6479 20.818 18.4204C21.2978 17.8352 21.8054 17.1501 22.4849 16.7895L22.0023 18.2013L22.7928 16.6952L23.3253 16.6065L24.2656 17.9073Z" fill="white"/>
</svg>
