<svg width="59" height="59" viewBox="0 0 59 59" fill="none" xmlns="http://www.w3.org/2000/svg">
<path d="M24.5 2.88675C27.594 1.10042 31.406 1.10042 34.5 2.88675L50.0477 11.8632C53.1418 13.6496 55.0477 16.9508 55.0477 20.5235V38.4765C55.0477 42.0492 53.1418 45.3504 50.0477 47.1367L34.5 56.1132C31.406 57.8996 27.594 57.8996 24.5 56.1133L8.95225 47.1368C5.85824 45.3504 3.95225 42.0492 3.95225 38.4765V20.5235C3.95225 16.9508 5.85824 13.6496 8.95225 11.8632L24.5 2.88675Z" fill="#FFA6A9"/>
<path d="M27.5 27.5H30C30.2652 27.5 30.5196 27.3947 30.7071 27.2071C30.8947 27.0196 31 26.7652 31 26.5C31 26.2348 30.8947 25.9804 30.7071 25.7929C30.5196 25.6054 30.2652 25.5 30 25.5H29V25C29 24.7348 28.8947 24.4804 28.7071 24.2929C28.5196 24.1054 28.2652 24 28 24C27.7348 24 27.4804 24.1054 27.2929 24.2929C27.1054 24.4804 27 24.7348 27 25V25.55C26.3924 25.6734 25.8524 26.0181 25.4847 26.5173C25.117 27.0164 24.9478 27.6344 25.0102 28.2513C25.0725 28.8681 25.3617 29.4398 25.8218 29.8553C26.2819 30.2709 26.88 30.5006 27.5 30.5H28.5C28.6326 30.5 28.7598 30.5527 28.8536 30.6465C28.9473 30.7402 29 30.8674 29 31C29 31.1326 28.9473 31.2598 28.8536 31.3536C28.7598 31.4473 28.6326 31.5 28.5 31.5H26C25.7348 31.5 25.4804 31.6054 25.2929 31.7929C25.1054 31.9804 25 32.2348 25 32.5C25 32.7652 25.1054 33.0196 25.2929 33.2071C25.4804 33.3947 25.7348 33.5 26 33.5H27V34C27 34.2652 27.1054 34.5196 27.2929 34.7071C27.4804 34.8947 27.7348 35 28 35C28.2652 35 28.5196 34.8947 28.7071 34.7071C28.8947 34.5196 29 34.2652 29 34V33.45C29.6076 33.3266 30.1476 32.9819 30.5154 32.4827C30.8831 31.9836 31.0522 31.3656 30.9899 30.7488C30.9276 30.1319 30.6383 29.5602 30.1782 29.1447C29.7181 28.7291 29.12 28.4994 28.5 28.5H27.5C27.3674 28.5 27.2402 28.4473 27.1465 28.3536C27.0527 28.2598 27 28.1326 27 28C27 27.8674 27.0527 27.7402 27.1465 27.6465C27.2402 27.5527 27.3674 27.5 27.5 27.5ZM39 29H36V20C36.0007 19.8238 35.9548 19.6505 35.867 19.4978C35.7792 19.345 35.6526 19.2181 35.5 19.13C35.348 19.0422 35.1755 18.996 35 18.996C34.8245 18.996 34.652 19.0422 34.5 19.13L31.5 20.85L28.5 19.13C28.348 19.0422 28.1755 18.996 28 18.996C27.8245 18.996 27.652 19.0422 27.5 19.13L24.5 20.85L21.5 19.13C21.348 19.0422 21.1755 18.996 21 18.996C20.8245 18.996 20.652 19.0422 20.5 19.13C20.3474 19.2181 20.2208 19.345 20.133 19.4978C20.0452 19.6505 19.9993 19.8238 20 20V36C20 36.7957 20.3161 37.5587 20.8787 38.1213C21.4413 38.6839 22.2044 39 23 39H37C37.7957 39 38.5587 38.6839 39.1213 38.1213C39.6839 37.5587 40 36.7957 40 36V30C40 29.7348 39.8947 29.4804 39.7071 29.2929C39.5196 29.1054 39.2652 29 39 29ZM23 37C22.7348 37 22.4804 36.8947 22.2929 36.7071C22.1054 36.5196 22 36.2652 22 36V21.73L24 22.87C24.1543 22.9506 24.3259 22.9927 24.5 22.9927C24.6741 22.9927 24.8457 22.9506 25 22.87L28 21.15L31 22.87C31.1543 22.9506 31.3259 22.9927 31.5 22.9927C31.6741 22.9927 31.8457 22.9506 32 22.87L34 21.73V36C34.0027 36.3412 34.0636 36.6793 34.18 37H23ZM38 36C38 36.2652 37.8947 36.5196 37.7071 36.7071C37.5196 36.8947 37.2652 37 37 37C36.7348 37 36.4804 36.8947 36.2929 36.7071C36.1054 36.5196 36 36.2652 36 36V31H38V36Z" fill="white"/>
</svg>
